M48
METRIC,TZ
T01C.3302
T02C.635
T03C.9144
T04C1.0668
T05C3.2
;LEADER: 12 
;HEADER: 
;CODE  : ASCII 
;FILE  : DRILLPROIECT-1-2.drl for board #Taaaaag20296.tmp ... layers TOP and BOTTOM
;T01 Holesize 1. = 0.330200 Tolerance = +0.000000/-0.000000 PLATED MM Quantity = 23
;T02 Holesize 2. = 0.635000 Tolerance = +0.000000/-0.000000 PLATED MM Quantity = 6
;T03 Holesize 3. = 0.914400 Tolerance = +0.000000/-0.000000 PLATED MM Quantity = 35
;T04 Holesize 4. = 1.066800 Tolerance = +0.000000/-0.000000 PLATED MM Quantity = 25
;T05 Holesize 5. = 3.200000 Tolerance = +0.000000/-0.000000 NON_PLATED MM Quantity = 4
%
G90
T01
X1540000Y1610000
X1540000Y1644000
X2905000Y1644000
X3605000Y1855000
X4690000Y1041000
X5390000Y1015000
X5417000Y1041000
X6055000Y1960000
X6440000Y1506000
X6440000Y2170000
X7070000Y3832000
X7070000Y2818000
X6440000Y3010000
X5880000Y2905000
X5425000Y3578000
X5215000Y3578000
X4507000Y4340000
X3745000Y3832000
X3605000Y2450000
X1483000Y3780000
X1820000Y5075000
X1820000Y5600000
X4551000Y5600000
T02
X1356000Y3780000
X1483000Y3780000
X1610000Y3780000
X2170000Y3780000
X2297000Y3780000
X2424000Y3780000
T03
X735000Y1645000
X735000Y2661000
X1540000Y1644000
X1540000Y2660000
X3745000Y3578000
X3745000Y3832000
X3745000Y4086000
X3745000Y4340000
X3535000Y5075000
X3535000Y5600000
X4551000Y5600000
X4551000Y5075000
X4507000Y4340000
X4507000Y4086000
X4507000Y3832000
X4507000Y3578000
X4655000Y1295000
X4655000Y1041000
X4655000Y787000
X4655000Y533000
X5417000Y533000
X5417000Y787000
X5417000Y1041000
X5417000Y1295000
X6090000Y4059000
X6090000Y5075000
X7070000Y4340000
X7070000Y4086000
X7070000Y3832000
X7070000Y3578000
X7070000Y2818000
X7070000Y2564000
X7070000Y2310000
X6440000Y1506000
X6440000Y490000
T04
X1224000Y700000
X2240000Y700000
X2310000Y1644000
X2904000Y700000
X2905000Y1644000
X3920000Y700000
X3920000Y1644000
X6055000Y489000
X6055000Y1505000
X5635000Y2975000
X5320000Y4059000
X5320000Y2345000
X5066000Y2091000
X4812000Y2345000
X4619000Y2975000
X3920000Y2660000
X2905000Y2660000
X2310000Y2660000
X735000Y3780000
X735000Y4796000
X1820000Y5075000
X1820000Y5600000
X2836000Y5075000
X2836000Y5600000
X5320000Y5075000
T05
X639000Y604000
X639000Y5486000
X6991000Y5486000
X6991000Y604000
M30
