G04 ================== begin FILE IDENTIFICATION RECORD ==================*
G04 Layout Name:  D:/ORCAD - PROIECTE/PROIECT TIE/allegro/PROIECTTIE.brd*
G04 Film Name:    FABRICATION*
G04 File Format:  Gerber RS274X*
G04 File Origin:  Cadence Allegro 16.6-2015-S059*
G04 Origin Date:  Sun Jun 07 17:07:38 2020*
G04 *
G04 Layer:  MANUFACTURING/PHOTOPLOT_OUTLINE*
G04 Layer:  MANUFACTURING/NO_GLOSS_ALL*
G04 Layer:  MANUFACTURING/NO_GLOSS_TOP*
G04 Layer:  MANUFACTURING/NO_GLOSS_BOTTOM*
G04 Layer:  MANUFACTURING/NO_GLOSS_INTERNAL*
G04 Layer:  MANUFACTURING/NCDRILL_LEGEND*
G04 Layer:  MANUFACTURING/NCDRILL_FIGURE*
G04 Layer:  MANUFACTURING/PROBE_TOP*
G04 Layer:  MANUFACTURING/PROBE_BOTTOM*
G04 Layer:  MANUFACTURING/AUTOSILK_TOP*
G04 Layer:  MANUFACTURING/AUTOSILK_BOTTOM*
G04 Layer:  MANUFACTURING/NO_PROBE_TOP*
G04 Layer:  MANUFACTURING/NO_PROBE_BOTTOM*
G04 Layer:  MANUFACTURING/XSECTION_CHART*
G04 Layer:  MANUFACTURING/NCLEGEND-1-2*
G04 Layer:  BOARD GEOMETRY/OUTLINE*
G04 *
G04 Offset:    (0.0000 0.0000)*
G04 Mirror:    No*
G04 Mode:      Positive*
G04 Rotation:  0*
G04 FullContactRelief:  No*
G04 UndefLineWidth:     0.2000*
G04 ================== end FILE IDENTIFICATION RECORD ====================*
%FSLAX25Y25*MOMM*%
%IR0*IPPOS*OFA0.00000B0.00000*MIA0B0*SFA1.00000B1.00000*%
%AMMACRO18*
1,1,.2,0.0,.4445*
20,1,.2,0.0,.4445,.4445,-.4445,0.0*
1,1,.2,.4445,-.4445*
20,1,.2,.4445,-.4445,-.4445,-.4445,0.0*
1,1,.2,-.4445,-.4445*
20,1,.2,-.4445,-.4445,0.0,.4445,0.0*
1,1,.2,0.0,.4445*
%
%ADD18MACRO18*%
%AMMACRO17*
1,1,.2,.635,0.0*
20,1,.2,.635,0.0,.625353,-.110267,0.0*
1,1,.2,.625353,-.110267*
20,1,.2,.625353,-.110267,.596705,-.217183,0.0*
1,1,.2,.596705,-.217183*
20,1,.2,.596705,-.217183,.549926,-.3175,0.0*
1,1,.2,.549926,-.3175*
20,1,.2,.549926,-.3175,.486438,-.40817,0.0*
1,1,.2,.486438,-.40817*
20,1,.2,.486438,-.40817,.40817,-.486438,0.0*
1,1,.2,.40817,-.486438*
20,1,.2,.40817,-.486438,.3175,-.549926,0.0*
1,1,.2,.3175,-.549926*
20,1,.2,.3175,-.549926,.217183,-.596705,0.0*
1,1,.2,.217183,-.596705*
20,1,.2,.217183,-.596705,.110267,-.625353,0.0*
1,1,.2,.110267,-.625353*
20,1,.2,.110267,-.625353,0.0,-.635,0.0*
1,1,.2,0.0,-.635*
20,1,.2,0.0,-.635,-.110267,-.625353,0.0*
1,1,.2,-.110267,-.625353*
20,1,.2,-.110267,-.625353,-.217183,-.596705,0.0*
1,1,.2,-.217183,-.596705*
20,1,.2,-.217183,-.596705,-.3175,-.549926,0.0*
1,1,.2,-.3175,-.549926*
20,1,.2,-.3175,-.549926,-.40817,-.486438,0.0*
1,1,.2,-.40817,-.486438*
20,1,.2,-.40817,-.486438,-.486438,-.40817,0.0*
1,1,.2,-.486438,-.40817*
20,1,.2,-.486438,-.40817,-.549926,-.3175,0.0*
1,1,.2,-.549926,-.3175*
20,1,.2,-.549926,-.3175,-.596705,-.217183,0.0*
1,1,.2,-.596705,-.217183*
20,1,.2,-.596705,-.217183,-.625353,-.110267,0.0*
1,1,.2,-.625353,-.110267*
20,1,.2,-.625353,-.110267,-.635,0.0,0.0*
1,1,.2,-.635,0.0*
20,1,.2,-.635,0.0,-.625353,.110267,0.0*
1,1,.2,-.625353,.110267*
20,1,.2,-.625353,.110267,-.596705,.217183,0.0*
1,1,.2,-.596705,.217183*
20,1,.2,-.596705,.217183,-.549926,.3175,0.0*
1,1,.2,-.549926,.3175*
20,1,.2,-.549926,.3175,-.486438,.40817,0.0*
1,1,.2,-.486438,.40817*
20,1,.2,-.486438,.40817,-.40817,.486438,0.0*
1,1,.2,-.40817,.486438*
20,1,.2,-.40817,.486438,-.3175,.549926,0.0*
1,1,.2,-.3175,.549926*
20,1,.2,-.3175,.549926,-.217183,.596705,0.0*
1,1,.2,-.217183,.596705*
20,1,.2,-.217183,.596705,-.110267,.625353,0.0*
1,1,.2,-.110267,.625353*
20,1,.2,-.110267,.625353,0.0,.635,0.0*
1,1,.2,0.0,.635*
20,1,.2,0.0,.635,.110267,.625353,0.0*
1,1,.2,.110267,.625353*
20,1,.2,.110267,.625353,.217183,.596705,0.0*
1,1,.2,.217183,.596705*
20,1,.2,.217183,.596705,.3175,.549926,0.0*
1,1,.2,.3175,.549926*
20,1,.2,.3175,.549926,.40817,.486438,0.0*
1,1,.2,.40817,.486438*
20,1,.2,.40817,.486438,.486438,.40817,0.0*
1,1,.2,.486438,.40817*
20,1,.2,.486438,.40817,.549926,.3175,0.0*
1,1,.2,.549926,.3175*
20,1,.2,.549926,.3175,.596705,.217183,0.0*
1,1,.2,.596705,.217183*
20,1,.2,.596705,.217183,.625353,.110267,0.0*
1,1,.2,.625353,.110267*
20,1,.2,.625353,.110267,.635,0.0,0.0*
1,1,.2,.635,0.0*
1,1,.2,.3175,0.0*
20,1,.2,.3175,0.0,-.3175,0.0,0.0*
1,1,.2,-.3175,0.0*
1,1,.2,0.0,.3175*
20,1,.2,0.0,.3175,0.0,-.3175,0.0*
1,1,.2,0.0,-.3175*
%
%ADD17MACRO17*%
%AMMACRO19*
1,1,.2,.3175,0.0*
20,1,.2,.3175,0.0,-.3175,0.0,0.0*
1,1,.2,-.3175,0.0*
1,1,.2,0.0,.3175*
20,1,.2,0.0,.3175,0.0,-.3175,0.0*
1,1,.2,0.0,-.3175*
%
%ADD19MACRO19*%
%AMMACRO15*
1,1,.2,-.508,.3175*
20,1,.2,-.508,.3175,-.500282,.405713,0.0*
1,1,.2,-.500282,.405713*
20,1,.2,-.500282,.405713,-.477364,.491246,0.0*
1,1,.2,-.477364,.491246*
20,1,.2,-.477364,.491246,-.439941,.5715,0.0*
1,1,.2,-.439941,.5715*
20,1,.2,-.439941,.5715,-.389151,.644036,0.0*
1,1,.2,-.389151,.644036*
20,1,.2,-.389151,.644036,-.326536,.706651,0.0*
1,1,.2,-.326536,.706651*
20,1,.2,-.326536,.706651,-.254,.757441,0.0*
1,1,.2,-.254,.757441*
20,1,.2,-.254,.757441,-.173746,.794864,0.0*
1,1,.2,-.173746,.794864*
20,1,.2,-.173746,.794864,-.088213,.817782,0.0*
1,1,.2,-.088213,.817782*
20,1,.2,-.088213,.817782,0.0,.8255,0.0*
1,1,.2,0.0,.8255*
20,1,.2,0.0,.8255,.088213,.817782,0.0*
1,1,.2,.088213,.817782*
20,1,.2,.088213,.817782,.173746,.794864,0.0*
1,1,.2,.173746,.794864*
20,1,.2,.173746,.794864,.254,.757441,0.0*
1,1,.2,.254,.757441*
20,1,.2,.254,.757441,.326536,.706651,0.0*
1,1,.2,.326536,.706651*
20,1,.2,.326536,.706651,.389151,.644036,0.0*
1,1,.2,.389151,.644036*
20,1,.2,.389151,.644036,.439941,.5715,0.0*
1,1,.2,.439941,.5715*
20,1,.2,.439941,.5715,.477364,.491246,0.0*
1,1,.2,.477364,.491246*
20,1,.2,.477364,.491246,.500282,.405713,0.0*
1,1,.2,.500282,.405713*
20,1,.2,.500282,.405713,.508,.3175,0.0*
1,1,.2,.508,.3175*
20,1,.2,.508,.3175,.508,-.3175,0.0*
1,1,.2,.508,-.3175*
20,1,.2,.508,-.3175,.500282,-.405713,0.0*
1,1,.2,.500282,-.405713*
20,1,.2,.500282,-.405713,.477364,-.491246,0.0*
1,1,.2,.477364,-.491246*
20,1,.2,.477364,-.491246,.439941,-.5715,0.0*
1,1,.2,.439941,-.5715*
20,1,.2,.439941,-.5715,.389151,-.644036,0.0*
1,1,.2,.389151,-.644036*
20,1,.2,.389151,-.644036,.326536,-.706651,0.0*
1,1,.2,.326536,-.706651*
20,1,.2,.326536,-.706651,.254,-.757441,0.0*
1,1,.2,.254,-.757441*
20,1,.2,.254,-.757441,.173746,-.794864,0.0*
1,1,.2,.173746,-.794864*
20,1,.2,.173746,-.794864,.088213,-.817782,0.0*
1,1,.2,.088213,-.817782*
20,1,.2,.088213,-.817782,0.0,-.8255,0.0*
1,1,.2,0.0,-.8255*
20,1,.2,0.0,-.8255,-.088213,-.817782,0.0*
1,1,.2,-.088213,-.817782*
20,1,.2,-.088213,-.817782,-.173746,-.794864,0.0*
1,1,.2,-.173746,-.794864*
20,1,.2,-.173746,-.794864,-.254,-.757441,0.0*
1,1,.2,-.254,-.757441*
20,1,.2,-.254,-.757441,-.326536,-.706651,0.0*
1,1,.2,-.326536,-.706651*
20,1,.2,-.326536,-.706651,-.389151,-.644036,0.0*
1,1,.2,-.389151,-.644036*
20,1,.2,-.389151,-.644036,-.439941,-.5715,0.0*
1,1,.2,-.439941,-.5715*
20,1,.2,-.439941,-.5715,-.477364,-.491246,0.0*
1,1,.2,-.477364,-.491246*
20,1,.2,-.477364,-.491246,-.500282,-.405713,0.0*
1,1,.2,-.500282,-.405713*
20,1,.2,-.500282,-.405713,-.508,-.3175,0.0*
1,1,.2,-.508,-.3175*
20,1,.2,-.508,-.3175,-.508,.3175,0.0*
1,1,.2,-.508,.3175*
%
%ADD15MACRO15*%
%AMMACRO13*
1,1,.2,.635,0.0*
20,1,.2,.635,0.0,.3175,.549926,0.0*
1,1,.2,.3175,.549926*
20,1,.2,.3175,.549926,-.3175,.549926,0.0*
1,1,.2,-.3175,.549926*
20,1,.2,-.3175,.549926,-.635,0.0,0.0*
1,1,.2,-.635,0.0*
20,1,.2,-.635,0.0,-.3175,-.549926,0.0*
1,1,.2,-.3175,-.549926*
20,1,.2,-.3175,-.549926,.3175,-.549926,0.0*
1,1,.2,.3175,-.549926*
20,1,.2,.3175,-.549926,.635,0.0,0.0*
1,1,.2,.635,0.0*
%
%ADD13MACRO13*%
%AMMACRO12*
1,1,.2,0.0,.762*
20,1,.2,0.0,.762,.762,-.762,0.0*
1,1,.2,.762,-.762*
20,1,.2,.762,-.762,-.762,-.762,0.0*
1,1,.2,-.762,-.762*
20,1,.2,-.762,-.762,0.0,.762,0.0*
1,1,.2,0.0,.762*
%
%ADD12MACRO12*%
%AMMACRO14*
1,1,.2,0.0,.8255*
20,1,.2,0.0,.8255,.8255,-.8255,0.0*
1,1,.2,.8255,-.8255*
20,1,.2,.8255,-.8255,-.8255,-.8255,0.0*
1,1,.2,-.8255,-.8255*
20,1,.2,-.8255,-.8255,0.0,.8255,0.0*
1,1,.2,0.0,.8255*
%
%ADD14MACRO14*%
%AMMACRO11*
1,1,.2,-.6668,-.9525*
20,1,.2,-.6668,-.9525,.6668,.9525,0.0*
1,1,.2,.6668,.9525*
1,1,.2,-.6668,.9525*
20,1,.2,-.6668,.9525,.6668,-.9525,0.0*
1,1,.2,.6668,-.9525*
%
%ADD11MACRO11*%
%AMMACRO10*
1,1,.2,0.0,.3175*
20,1,.2,0.0,.3175,.3175,-.3175,0.0*
1,1,.2,.3175,-.3175*
20,1,.2,.3175,-.3175,-.3175,-.3175,0.0*
1,1,.2,-.3175,-.3175*
20,1,.2,-.3175,-.3175,0.0,.3175,0.0*
1,1,.2,0.0,.3175*
%
%ADD10MACRO10*%
%AMMACRO16*
1,1,.2,0.0,.3048*
20,1,.2,0.0,.3048,.3048,-.3048,0.0*
1,1,.2,.3048,-.3048*
20,1,.2,.3048,-.3048,-.3048,-.3048,0.0*
1,1,.2,-.3048,-.3048*
20,1,.2,-.3048,-.3048,0.0,.3048,0.0*
1,1,.2,0.0,.3048*
%
%ADD16MACRO16*%
%ADD20C,.2*%
G75*
%LPD*%
G75*
G36*
G01X23258000Y5613620D02*
Y5028020D01*
X23321500D01*
Y1126580D01*
X23258000D01*
Y540980D01*
X23639000D01*
Y1126580D01*
X23575500D01*
Y5028020D01*
X23639000D01*
Y5613620D01*
X23258000D01*
G37*
G36*
G01X22750000Y540980D02*
Y1126580D01*
X24274000D01*
Y540980D01*
X22750000D01*
G37*
G36*
G01Y5028020D02*
Y5613620D01*
X24274000D01*
Y5028020D01*
X22750000D01*
G37*
G54D10*
X639000Y604000D03*
D03*
Y5486000D03*
D03*
X6991000Y604000D03*
D03*
Y5486000D03*
D03*
G54D20*
G01X22798600Y298160D02*
Y361660D01*
X22812150D01*
X22817560Y358480D01*
X22821630Y354250D01*
X22825020Y347900D01*
X22827720Y340490D01*
X22828400Y329910D01*
X22827720Y319330D01*
X22825020Y311920D01*
X22821630Y305570D01*
X22817560Y301330D01*
X22812150Y298160D01*
X22798600D01*
G01X22882930D02*
X22855830D01*
Y361660D01*
X22882930D01*
G01X22872090Y330970D02*
X22855830D01*
G01X22911040Y306620D02*
X22916450Y301330D01*
X22922550Y298160D01*
X22927970D01*
X22933390Y301330D01*
X22937450Y306620D01*
X22939480Y314040D01*
X22938130Y321440D01*
X22934740Y327790D01*
X22928650Y332030D01*
X22920520Y334140D01*
X22915780Y338380D01*
X22913740Y345780D01*
X22915100Y353190D01*
X22918490Y358480D01*
X22923230Y361660D01*
X22927970D01*
X22932710Y359540D01*
X22936780Y354250D01*
G01X22973010Y361660D02*
X22989270D01*
G01X22981140D02*
Y298160D01*
G01X22973010D02*
X22989270D01*
G01X23041080Y329910D02*
X23054630D01*
Y310860D01*
X23050570Y304510D01*
X23045830Y300280D01*
X23039050Y298160D01*
X23032280Y300280D01*
X23027540Y304510D01*
X23023470Y310860D01*
X23020760Y318270D01*
X23019410Y326730D01*
Y334140D01*
X23020760Y340490D01*
X23023470Y347900D01*
X23027540Y354250D01*
X23031600Y358480D01*
X23037020Y361660D01*
X23041760D01*
X23047180Y359540D01*
X23051240Y355310D01*
G01X23077320Y298160D02*
Y361660D01*
X23108480Y298160D01*
Y361660D01*
G01X23219560Y356370D02*
X23215500Y359540D01*
X23210760Y361660D01*
X23205340D01*
X23199240Y358480D01*
X23194500Y353190D01*
X23191110Y346840D01*
X23188400Y336260D01*
X23187730Y326730D01*
X23189080Y317210D01*
X23191110Y310860D01*
X23195180Y304510D01*
X23199920Y300280D01*
X23204660Y298160D01*
X23209400D01*
X23214140Y300280D01*
X23218210Y303450D01*
X23221590Y307680D01*
G01X23246990Y298160D02*
Y361660D01*
X23263930D01*
X23269350Y358480D01*
X23272730Y354250D01*
X23274090Y345780D01*
X23272730Y337320D01*
X23268670Y332030D01*
X23263930Y328850D01*
X23246990D01*
G01X23263930D02*
X23274090Y298160D01*
G01X23316420D02*
X23311000Y299220D01*
X23306260Y303450D01*
X23302200Y309800D01*
X23299490Y317210D01*
X23298130Y325680D01*
Y334140D01*
X23299490Y342610D01*
X23302200Y350020D01*
X23306260Y356370D01*
X23311000Y360600D01*
X23316420Y361660D01*
X23321840Y360600D01*
X23326580Y356370D01*
X23330640Y350020D01*
X23333350Y342610D01*
X23334710Y334140D01*
Y325680D01*
X23333350Y317210D01*
X23330640Y309800D01*
X23326580Y303450D01*
X23321840Y299220D01*
X23316420Y298160D01*
G01X23358080Y306620D02*
X23363490Y301330D01*
X23369590Y298160D01*
X23375010D01*
X23380430Y301330D01*
X23384490Y306620D01*
X23386520Y314040D01*
X23385170Y321440D01*
X23381780Y327790D01*
X23375690Y332030D01*
X23367560Y334140D01*
X23362820Y338380D01*
X23360780Y345780D01*
X23362140Y353190D01*
X23365530Y358480D01*
X23370270Y361660D01*
X23375010D01*
X23379750Y359540D01*
X23383820Y354250D01*
G01X23413960Y306620D02*
X23419370Y301330D01*
X23425470Y298160D01*
X23430890D01*
X23436310Y301330D01*
X23440370Y306620D01*
X23442400Y314040D01*
X23441050Y321440D01*
X23437660Y327790D01*
X23431570Y332030D01*
X23423440Y334140D01*
X23418700Y338380D01*
X23416660Y345780D01*
X23418020Y353190D01*
X23421410Y358480D01*
X23426150Y361660D01*
X23430890D01*
X23435630Y359540D01*
X23439700Y354250D01*
G01X23525720Y306620D02*
X23531130Y301330D01*
X23537230Y298160D01*
X23542650D01*
X23548070Y301330D01*
X23552130Y306620D01*
X23554160Y314040D01*
X23552810Y321440D01*
X23549420Y327790D01*
X23543330Y332030D01*
X23535200Y334140D01*
X23530460Y338380D01*
X23528420Y345780D01*
X23529780Y353190D01*
X23533170Y358480D01*
X23537910Y361660D01*
X23542650D01*
X23547390Y359540D01*
X23551460Y354250D01*
G01X23609370Y298160D02*
X23582270D01*
Y361660D01*
X23609370D01*
G01X23598530Y330970D02*
X23582270D01*
G01X23666600Y356370D02*
X23662540Y359540D01*
X23657800Y361660D01*
X23652380D01*
X23646280Y358480D01*
X23641540Y353190D01*
X23638150Y346840D01*
X23635440Y336260D01*
X23634770Y326730D01*
X23636120Y317210D01*
X23638150Y310860D01*
X23642220Y304510D01*
X23646960Y300280D01*
X23651700Y298160D01*
X23656440D01*
X23661180Y300280D01*
X23665250Y303450D01*
X23668630Y307680D01*
G01X23707580Y361660D02*
Y298160D01*
G01X23692000Y361660D02*
X23723160D01*
G01X23755330D02*
X23771590D01*
G01X23763460D02*
Y298160D01*
G01X23755330D02*
X23771590D01*
G01X23819340D02*
X23813920Y299220D01*
X23809180Y303450D01*
X23805120Y309800D01*
X23802410Y317210D01*
X23801050Y325680D01*
Y334140D01*
X23802410Y342610D01*
X23805120Y350020D01*
X23809180Y356370D01*
X23813920Y360600D01*
X23819340Y361660D01*
X23824760Y360600D01*
X23829500Y356370D01*
X23833560Y350020D01*
X23836270Y342610D01*
X23837630Y334140D01*
Y325680D01*
X23836270Y317210D01*
X23833560Y309800D01*
X23829500Y303450D01*
X23824760Y299220D01*
X23819340Y298160D01*
G01X23859640D02*
Y361660D01*
X23890800Y298160D01*
Y361660D01*
G01X24001880Y356370D02*
X23997820Y359540D01*
X23993080Y361660D01*
X23987660D01*
X23981560Y358480D01*
X23976820Y353190D01*
X23973430Y346840D01*
X23970720Y336260D01*
X23970050Y326730D01*
X23971400Y317210D01*
X23973430Y310860D01*
X23977500Y304510D01*
X23982240Y300280D01*
X23986980Y298160D01*
X23991720D01*
X23996460Y300280D01*
X24000530Y303450D01*
X24003910Y307680D01*
G01X24028640Y298160D02*
Y361660D01*
G01X24057080D02*
Y298160D01*
G01Y329910D02*
X24028640D01*
G01X24081810Y298160D02*
X24098740Y361660D01*
X24115670Y298160D01*
G01X24109580Y320380D02*
X24087900D01*
G01X24141070Y298160D02*
Y361660D01*
X24158010D01*
X24163430Y358480D01*
X24166810Y354250D01*
X24168170Y345780D01*
X24166810Y337320D01*
X24162750Y332030D01*
X24158010Y328850D01*
X24141070D01*
G01X24158010D02*
X24168170Y298160D01*
G01X24210500Y361660D02*
Y298160D01*
G01X24194920Y361660D02*
X24226080D01*
G01X22765240Y276990D02*
X22805880D01*
G01X22821120D02*
X22861760D01*
G01X22877000D02*
X22917640D01*
G01X22932880D02*
X22973520D01*
G01X22988760D02*
X23029400D01*
G01X23044640D02*
X23085280D01*
G01X23100520D02*
X23141160D01*
G01X23156400D02*
X23197040D01*
G01X23212280D02*
X23252920D01*
G01X23268160D02*
X23308800D01*
G01X23324040D02*
X23364680D01*
G01X23379920D02*
X23420560D01*
G01X23435800D02*
X23476440D01*
G01X23491680D02*
X23532320D01*
G01X23547560D02*
X23588200D01*
G01X23603440D02*
X23644080D01*
G01X23659320D02*
X23699960D01*
G01X23715200D02*
X23755840D01*
G01X23771080D02*
X23811720D01*
G01X23826960D02*
X23867600D01*
G01X23882840D02*
X23923480D01*
G01X23938720D02*
X23979360D01*
G01X23994600D02*
X24035240D01*
G01X24050480D02*
X24091120D01*
G01X24106360D02*
X24147000D01*
G01X24162240D02*
X24202880D01*
G01X24218120D02*
X24258760D01*
G01X22841440Y234660D02*
Y171160D01*
G01X22825860Y234660D02*
X22857020D01*
G01X22897320Y171160D02*
X22891900Y172220D01*
X22887160Y176450D01*
X22883100Y182800D01*
X22880390Y190210D01*
X22879030Y198680D01*
Y207140D01*
X22880390Y215610D01*
X22883100Y223020D01*
X22887160Y229370D01*
X22891900Y233600D01*
X22897320Y234660D01*
X22902740Y233600D01*
X22907480Y229370D01*
X22911540Y223020D01*
X22914250Y215610D01*
X22915610Y207140D01*
Y198680D01*
X22914250Y190210D01*
X22911540Y182800D01*
X22907480Y176450D01*
X22902740Y172220D01*
X22897320Y171160D01*
G01X22953200Y234660D02*
Y171160D01*
G01X22937620Y234660D02*
X22968780D01*
G01X22992150Y171160D02*
X23009080Y234660D01*
X23026010Y171160D01*
G01X23019920Y193380D02*
X22998240D01*
G01X23051410Y234660D02*
Y171160D01*
X23078510D01*
G01X23176720Y234660D02*
Y171160D01*
G01X23161140Y234660D02*
X23192300D01*
G01X23218380Y171160D02*
Y234660D01*
G01X23246820D02*
Y171160D01*
G01Y202910D02*
X23218380D01*
G01X23280350Y234660D02*
X23296610D01*
G01X23288480D02*
Y171160D01*
G01X23280350D02*
X23296610D01*
G01X23359260Y229370D02*
X23355200Y232540D01*
X23350460Y234660D01*
X23345040D01*
X23338940Y231480D01*
X23334200Y226190D01*
X23330810Y219840D01*
X23328100Y209260D01*
X23327430Y199730D01*
X23328780Y190210D01*
X23330810Y183860D01*
X23334880Y177510D01*
X23339620Y173280D01*
X23344360Y171160D01*
X23349100D01*
X23353840Y173280D01*
X23357910Y176450D01*
X23361290Y180680D01*
G01X23385340Y171160D02*
Y234660D01*
G01X23411080D02*
X23385340Y195500D01*
G01X23415140Y171160D02*
X23396850Y213490D01*
G01X23440540Y171160D02*
Y234660D01*
X23471700Y171160D01*
Y234660D01*
G01X23525550Y171160D02*
X23498450D01*
Y234660D01*
X23525550D01*
G01X23514710Y203970D02*
X23498450D01*
G01X23553660Y179620D02*
X23559070Y174330D01*
X23565170Y171160D01*
X23570590D01*
X23576010Y174330D01*
X23580070Y179620D01*
X23582100Y187040D01*
X23580750Y194440D01*
X23577360Y200790D01*
X23571270Y205030D01*
X23563140Y207140D01*
X23558400Y211380D01*
X23556360Y218780D01*
X23557720Y226190D01*
X23561110Y231480D01*
X23565850Y234660D01*
X23570590D01*
X23575330Y232540D01*
X23579400Y227250D01*
G01X23609540Y179620D02*
X23614950Y174330D01*
X23621050Y171160D01*
X23626470D01*
X23631890Y174330D01*
X23635950Y179620D01*
X23637980Y187040D01*
X23636630Y194440D01*
X23633240Y200790D01*
X23627150Y205030D01*
X23619020Y207140D01*
X23614280Y211380D01*
X23612240Y218780D01*
X23613600Y226190D01*
X23616990Y231480D01*
X23621730Y234660D01*
X23626470D01*
X23631210Y232540D01*
X23635280Y227250D01*
G01X23735520Y234660D02*
X23730100Y232540D01*
X23726040Y227250D01*
X23723330Y220900D01*
X23721300Y212430D01*
X23720620Y202910D01*
X23721300Y193380D01*
X23723330Y184920D01*
X23726040Y178570D01*
X23730100Y173280D01*
X23735520Y171160D01*
X23740940Y173280D01*
X23745000Y178570D01*
X23747710Y184920D01*
X23749740Y193380D01*
X23750420Y202910D01*
X23749740Y212430D01*
X23747710Y220900D01*
X23745000Y227250D01*
X23740940Y232540D01*
X23735520Y234660D01*
G01X23791400Y169040D02*
X23790050Y170100D01*
Y172220D01*
X23791400Y173280D01*
X23792750Y172220D01*
Y170100D01*
X23791400Y169040D01*
G01X23834410Y224080D02*
X23838470Y230430D01*
X23843220Y233600D01*
X23848630Y234660D01*
X23855410Y232540D01*
X23860150Y227250D01*
X23861500Y220900D01*
X23860830Y214550D01*
X23858120Y209260D01*
X23844570Y198680D01*
X23838470Y191270D01*
X23834410Y180680D01*
X23833060Y171160D01*
X23861500D01*
G01X23890290Y197620D02*
X23895030Y205030D01*
X23899100Y209260D01*
X23904510Y211380D01*
X23909260Y209260D01*
X23912640Y205030D01*
X23915350Y198680D01*
X23916030Y191270D01*
X23915350Y184920D01*
X23912640Y178570D01*
X23908580Y173280D01*
X23903840Y171160D01*
X23898420Y173280D01*
X23893680Y179620D01*
X23890970Y189150D01*
X23890290Y199730D01*
X23891640Y213490D01*
X23893680Y220900D01*
X23897060Y228310D01*
X23901810Y233600D01*
X23906550Y234660D01*
X23911290Y232540D01*
X23914680Y227250D01*
G01X23967170Y171160D02*
Y234660D01*
X23942110Y189150D01*
X23975970D01*
G01X24002050Y224080D02*
X24006110Y230430D01*
X24010860Y233600D01*
X24016270Y234660D01*
X24023050Y232540D01*
X24027790Y227250D01*
X24029140Y220900D01*
X24028470Y214550D01*
X24025760Y209260D01*
X24012210Y198680D01*
X24006110Y191270D01*
X24002050Y180680D01*
X24000700Y171160D01*
X24029140D01*
G01X24109070D02*
Y234660D01*
X24126680Y181740D01*
X24144290Y234660D01*
Y171160D01*
G01X24164950D02*
Y234660D01*
X24182560Y181740D01*
X24200170Y234660D01*
Y171160D01*
G01X23448500Y5697440D02*
X23385000D01*
X23397700Y5689310D01*
G01X23448500D02*
Y5705570D01*
G01X23427330Y5744510D02*
Y5762130D01*
G01X23395580Y5796330D02*
X23389230Y5800390D01*
X23386060Y5805140D01*
X23385000Y5810550D01*
X23387120Y5817330D01*
X23392410Y5822070D01*
X23398760Y5823420D01*
X23405110Y5822750D01*
X23410400Y5820040D01*
X23420980Y5806490D01*
X23428390Y5800390D01*
X23438980Y5796330D01*
X23448500Y5794980D01*
Y5823420D01*
G01X24447060Y454200D02*
X24476860Y500770D01*
G01X24461960Y509240D02*
Y445740D01*
G01X24476860Y454200D02*
X24447060Y500770D01*
G01X24441640Y477490D02*
X24482280D01*
G01X24615380Y464780D02*
X24620790Y459490D01*
X24626890Y456320D01*
X24632310D01*
X24637730Y459490D01*
X24641790Y464780D01*
X24643820Y472200D01*
X24642470Y479600D01*
X24639080Y485950D01*
X24632990Y490190D01*
X24624860Y492300D01*
X24620120Y496540D01*
X24618080Y503940D01*
X24619440Y511350D01*
X24622830Y516640D01*
X24627570Y519820D01*
X24632310D01*
X24637050Y517700D01*
X24641120Y512410D01*
G01X24670580Y519820D02*
Y474310D01*
X24673290Y464780D01*
X24678710Y458440D01*
X24685480Y456320D01*
X24692250Y458440D01*
X24697670Y464780D01*
X24700380Y474310D01*
Y519820D01*
G01X24727810Y456320D02*
Y519820D01*
X24744750D01*
X24750170Y516640D01*
X24753550Y512410D01*
X24754910Y503940D01*
X24753550Y495480D01*
X24749490Y490190D01*
X24744750Y487010D01*
X24727810D01*
G01X24744750D02*
X24754910Y456320D01*
G01X24784370D02*
Y519820D01*
X24810110D01*
G01X24800630Y489130D02*
X24784370D01*
G01X24836190Y456320D02*
X24853120Y519820D01*
X24870050Y456320D01*
G01X24863960Y478540D02*
X24842280D01*
G01X24923900Y514530D02*
X24919840Y517700D01*
X24915100Y519820D01*
X24909680D01*
X24903580Y516640D01*
X24898840Y511350D01*
X24895450Y505000D01*
X24892740Y494420D01*
X24892070Y484890D01*
X24893420Y475370D01*
X24895450Y469020D01*
X24899520Y462670D01*
X24904260Y458440D01*
X24909000Y456320D01*
X24913740D01*
X24918480Y458440D01*
X24922550Y461610D01*
X24925930Y465840D01*
G01X24978430Y456320D02*
X24951330D01*
Y519820D01*
X24978430D01*
G01X24967590Y489130D02*
X24951330D01*
G01X25067830Y477490D02*
X25085450D01*
G01X25171470Y456320D02*
X25188400Y519820D01*
X25205330Y456320D01*
G01X25199240Y478540D02*
X25177560D01*
G01X25236150Y519820D02*
X25252410D01*
G01X25244280D02*
Y456320D01*
G01X25236150D02*
X25252410D01*
G01X25286610D02*
Y519820D01*
X25303550D01*
X25308970Y516640D01*
X25312350Y512410D01*
X25313710Y503940D01*
X25312350Y495480D01*
X25308290Y490190D01*
X25303550Y487010D01*
X25286610D01*
G01X25303550D02*
X25313710Y456320D01*
G01X25411920Y519820D02*
X25406500Y517700D01*
X25402440Y512410D01*
X25399730Y506060D01*
X25397700Y497590D01*
X25397020Y488070D01*
X25397700Y478540D01*
X25399730Y470080D01*
X25402440Y463730D01*
X25406500Y458440D01*
X25411920Y456320D01*
X25417340Y458440D01*
X25421400Y463730D01*
X25424110Y470080D01*
X25426140Y478540D01*
X25426820Y488070D01*
X25426140Y497590D01*
X25424110Y506060D01*
X25421400Y512410D01*
X25417340Y517700D01*
X25411920Y519820D01*
G01X25506070Y456320D02*
Y519820D01*
X25523680Y466900D01*
X25541290Y519820D01*
Y456320D01*
G01X25561950D02*
Y519820D01*
X25579560Y466900D01*
X25597170Y519820D01*
Y456320D01*
G01X24336650Y897280D02*
Y833780D01*
X24363750D01*
G01X24393210Y886700D02*
X24397270Y893050D01*
X24402020Y896220D01*
X24407430Y897280D01*
X24414210Y895160D01*
X24418950Y889870D01*
X24420300Y883520D01*
X24419630Y877170D01*
X24416920Y871880D01*
X24403370Y861300D01*
X24397270Y853890D01*
X24393210Y843300D01*
X24391860Y833780D01*
X24420300D01*
G01X24461960Y831660D02*
X24460610Y832720D01*
Y834840D01*
X24461960Y835900D01*
X24463310Y834840D01*
Y832720D01*
X24461960Y831660D01*
G01Y860240D02*
X24460610Y861300D01*
Y863410D01*
X24461960Y864470D01*
X24463310Y863410D01*
Y861300D01*
X24461960Y860240D01*
G01X24579140Y867650D02*
X24581850Y870820D01*
X24583880Y876110D01*
X24585240Y883520D01*
X24583880Y889870D01*
X24581170Y894100D01*
X24576430Y897280D01*
X24558140D01*
Y833780D01*
X24580490D01*
X24585240Y838010D01*
X24587940Y844360D01*
X24589300Y851770D01*
X24587940Y859180D01*
X24583880Y865530D01*
X24579140Y867650D01*
X24558140D01*
G01X24629600Y833780D02*
X24624180Y834840D01*
X24619440Y839070D01*
X24615380Y845420D01*
X24612670Y852830D01*
X24611310Y861300D01*
Y869760D01*
X24612670Y878230D01*
X24615380Y885640D01*
X24619440Y891990D01*
X24624180Y896220D01*
X24629600Y897280D01*
X24635020Y896220D01*
X24639760Y891990D01*
X24643820Y885640D01*
X24646530Y878230D01*
X24647890Y869760D01*
Y861300D01*
X24646530Y852830D01*
X24643820Y845420D01*
X24639760Y839070D01*
X24635020Y834840D01*
X24629600Y833780D01*
G01X24685480Y897280D02*
Y833780D01*
G01X24669900Y897280D02*
X24701060D01*
G01X24741360D02*
Y833780D01*
G01X24725780Y897280D02*
X24756940D01*
G01X24797240Y833780D02*
X24791820Y834840D01*
X24787080Y839070D01*
X24783020Y845420D01*
X24780310Y852830D01*
X24778950Y861300D01*
Y869760D01*
X24780310Y878230D01*
X24783020Y885640D01*
X24787080Y891990D01*
X24791820Y896220D01*
X24797240Y897280D01*
X24802660Y896220D01*
X24807400Y891990D01*
X24811460Y885640D01*
X24814170Y878230D01*
X24815530Y869760D01*
Y861300D01*
X24814170Y852830D01*
X24811460Y845420D01*
X24807400Y839070D01*
X24802660Y834840D01*
X24797240Y833780D01*
G01X24835510D02*
Y897280D01*
X24853120Y844360D01*
X24870730Y897280D01*
Y833780D01*
G01X24979780Y891990D02*
X24975720Y895160D01*
X24970980Y897280D01*
X24965560D01*
X24959460Y894100D01*
X24954720Y888810D01*
X24951330Y882460D01*
X24948620Y871880D01*
X24947950Y862350D01*
X24949300Y852830D01*
X24951330Y846480D01*
X24955400Y840130D01*
X24960140Y835900D01*
X24964880Y833780D01*
X24969620D01*
X24974360Y835900D01*
X24978430Y839070D01*
X24981810Y843300D01*
G01X25020760Y833780D02*
X25015340Y834840D01*
X25010600Y839070D01*
X25006540Y845420D01*
X25003830Y852830D01*
X25002470Y861300D01*
Y869760D01*
X25003830Y878230D01*
X25006540Y885640D01*
X25010600Y891990D01*
X25015340Y896220D01*
X25020760Y897280D01*
X25026180Y896220D01*
X25030920Y891990D01*
X25034980Y885640D01*
X25037690Y878230D01*
X25039050Y869760D01*
Y861300D01*
X25037690Y852830D01*
X25034980Y845420D01*
X25030920Y839070D01*
X25026180Y834840D01*
X25020760Y833780D01*
G01X25061060D02*
Y897280D01*
X25092220Y833780D01*
Y897280D01*
G01X25117620Y833780D02*
Y897280D01*
X25131170D01*
X25136580Y894100D01*
X25140650Y889870D01*
X25144040Y883520D01*
X25146740Y876110D01*
X25147420Y865530D01*
X25146740Y854950D01*
X25144040Y847540D01*
X25140650Y841190D01*
X25136580Y836950D01*
X25131170Y833780D01*
X25117620D01*
G01X25173500Y897280D02*
Y851770D01*
X25176210Y842240D01*
X25181630Y835900D01*
X25188400Y833780D01*
X25195170Y835900D01*
X25200590Y842240D01*
X25203300Y851770D01*
Y897280D01*
G01X25259180Y891990D02*
X25255120Y895160D01*
X25250380Y897280D01*
X25244960D01*
X25238860Y894100D01*
X25234120Y888810D01*
X25230730Y882460D01*
X25228020Y871880D01*
X25227350Y862350D01*
X25228700Y852830D01*
X25230730Y846480D01*
X25234800Y840130D01*
X25239540Y835900D01*
X25244280Y833780D01*
X25249020D01*
X25253760Y835900D01*
X25257830Y839070D01*
X25261210Y843300D01*
G01X25300160Y897280D02*
Y833780D01*
G01X25284580Y897280D02*
X25315740D01*
G01X25356040Y833780D02*
X25350620Y834840D01*
X25345880Y839070D01*
X25341820Y845420D01*
X25339110Y852830D01*
X25337750Y861300D01*
Y869760D01*
X25339110Y878230D01*
X25341820Y885640D01*
X25345880Y891990D01*
X25350620Y896220D01*
X25356040Y897280D01*
X25361460Y896220D01*
X25366200Y891990D01*
X25370260Y885640D01*
X25372970Y878230D01*
X25374330Y869760D01*
Y861300D01*
X25372970Y852830D01*
X25370260Y845420D01*
X25366200Y839070D01*
X25361460Y834840D01*
X25356040Y833780D01*
G01X25398370D02*
Y897280D01*
X25415310D01*
X25420730Y894100D01*
X25424110Y889870D01*
X25425470Y881400D01*
X25424110Y872940D01*
X25420050Y867650D01*
X25415310Y864470D01*
X25398370D01*
G01X25415310D02*
X25425470Y833780D01*
G01X25514870Y854950D02*
X25532490D01*
G01X25650340Y891990D02*
X25646280Y895160D01*
X25641540Y897280D01*
X25636120D01*
X25630020Y894100D01*
X25625280Y888810D01*
X25621890Y882460D01*
X25619180Y871880D01*
X25618510Y862350D01*
X25619860Y852830D01*
X25621890Y846480D01*
X25625960Y840130D01*
X25630700Y835900D01*
X25635440Y833780D01*
X25640180D01*
X25644920Y835900D01*
X25648990Y839070D01*
X25652370Y843300D01*
G01X25691320Y833780D02*
X25685900Y834840D01*
X25681160Y839070D01*
X25677100Y845420D01*
X25674390Y852830D01*
X25673030Y861300D01*
Y869760D01*
X25674390Y878230D01*
X25677100Y885640D01*
X25681160Y891990D01*
X25685900Y896220D01*
X25691320Y897280D01*
X25696740Y896220D01*
X25701480Y891990D01*
X25705540Y885640D01*
X25708250Y878230D01*
X25709610Y869760D01*
Y861300D01*
X25708250Y852830D01*
X25705540Y845420D01*
X25701480Y839070D01*
X25696740Y834840D01*
X25691320Y833780D01*
G01X25733650D02*
Y897280D01*
X25749910D01*
X25755330Y894100D01*
X25759390Y886700D01*
X25760750Y878230D01*
X25759390Y869760D01*
X25756010Y863410D01*
X25749910Y860240D01*
X25733650D01*
G01X25789530Y833780D02*
Y897280D01*
X25805790D01*
X25811210Y894100D01*
X25815270Y886700D01*
X25816630Y878230D01*
X25815270Y869760D01*
X25811890Y863410D01*
X25805790Y860240D01*
X25789530D01*
G01X25872510Y833780D02*
X25845410D01*
Y897280D01*
X25872510D01*
G01X25861670Y866590D02*
X25845410D01*
G01X25901290Y833780D02*
Y897280D01*
X25918230D01*
X25923650Y894100D01*
X25927030Y889870D01*
X25928390Y881400D01*
X25927030Y872940D01*
X25922970Y867650D01*
X25918230Y864470D01*
X25901290D01*
G01X25918230D02*
X25928390Y833780D01*
G01X26026600Y897280D02*
X26021180Y895160D01*
X26017120Y889870D01*
X26014410Y883520D01*
X26012380Y875050D01*
X26011700Y865530D01*
X26012380Y856000D01*
X26014410Y847540D01*
X26017120Y841190D01*
X26021180Y835900D01*
X26026600Y833780D01*
X26032020Y835900D01*
X26036080Y841190D01*
X26038790Y847540D01*
X26040820Y856000D01*
X26041500Y865530D01*
X26040820Y875050D01*
X26038790Y883520D01*
X26036080Y889870D01*
X26032020Y895160D01*
X26026600Y897280D01*
G01X26082480Y831660D02*
X26081130Y832720D01*
Y834840D01*
X26082480Y835900D01*
X26083830Y834840D01*
Y832720D01*
X26082480Y831660D01*
G01X26138360Y897280D02*
X26132940Y895160D01*
X26128880Y889870D01*
X26126170Y883520D01*
X26124140Y875050D01*
X26123460Y865530D01*
X26124140Y856000D01*
X26126170Y847540D01*
X26128880Y841190D01*
X26132940Y835900D01*
X26138360Y833780D01*
X26143780Y835900D01*
X26147840Y841190D01*
X26150550Y847540D01*
X26152580Y856000D01*
X26153260Y865530D01*
X26152580Y875050D01*
X26150550Y883520D01*
X26147840Y889870D01*
X26143780Y895160D01*
X26138360Y897280D01*
G01X26179340Y846480D02*
X26183400Y839070D01*
X26188820Y834840D01*
X26194920Y833780D01*
X26200340Y834840D01*
X26205760Y840130D01*
X26209140Y846480D01*
X26209820Y852830D01*
X26208460Y860240D01*
X26203720Y865530D01*
X26198980Y867650D01*
X26192890D01*
G01X26198980D02*
X26203050Y870820D01*
X26206430Y876110D01*
X26207790Y882460D01*
X26206430Y888810D01*
X26203050Y894100D01*
X26196950Y897280D01*
X26190850Y896220D01*
X26184760Y891990D01*
G01X26250120Y897280D02*
X26244700Y895160D01*
X26240640Y889870D01*
X26237930Y883520D01*
X26235900Y875050D01*
X26235220Y865530D01*
X26235900Y856000D01*
X26237930Y847540D01*
X26240640Y841190D01*
X26244700Y835900D01*
X26250120Y833780D01*
X26255540Y835900D01*
X26259600Y841190D01*
X26262310Y847540D01*
X26264340Y856000D01*
X26265020Y865530D01*
X26264340Y875050D01*
X26262310Y883520D01*
X26259600Y889870D01*
X26255540Y895160D01*
X26250120Y897280D01*
G01X26291100Y843300D02*
X26295160Y838010D01*
X26299900Y834840D01*
X26306000Y833780D01*
X26312100Y835900D01*
X26316840Y840130D01*
X26320220Y847540D01*
X26320900Y856000D01*
X26319550Y864470D01*
X26316160Y869760D01*
X26311420Y874000D01*
X26306680Y875050D01*
X26301940Y874000D01*
X26295840Y869760D01*
X26297870Y897280D01*
X26316160D01*
G01X26400150Y833780D02*
Y897280D01*
X26417760Y844360D01*
X26435370Y897280D01*
Y833780D01*
G01X26456030D02*
Y897280D01*
X26473640Y844360D01*
X26491250Y897280D01*
Y833780D01*
G01X24447060Y3075180D02*
X24476860Y3121750D01*
G01X24461960Y3130220D02*
Y3066720D01*
G01X24476860Y3075180D02*
X24447060Y3121750D01*
G01X24441640Y3098470D02*
X24482280D01*
G01X24614700Y3077300D02*
Y3140800D01*
X24628250D01*
X24633660Y3137620D01*
X24637730Y3133390D01*
X24641120Y3127040D01*
X24643820Y3119630D01*
X24644500Y3109050D01*
X24643820Y3098470D01*
X24641120Y3091060D01*
X24637730Y3084710D01*
X24633660Y3080470D01*
X24628250Y3077300D01*
X24614700D01*
G01X24677350Y3140800D02*
X24693610D01*
G01X24685480D02*
Y3077300D01*
G01X24677350D02*
X24693610D01*
G01X24754910D02*
X24727810D01*
Y3140800D01*
X24754910D01*
G01X24744070Y3110110D02*
X24727810D01*
G01X24783690Y3140800D02*
Y3077300D01*
X24810790D01*
G01X24866670D02*
X24839570D01*
Y3140800D01*
X24866670D01*
G01X24855830Y3110110D02*
X24839570D01*
G01X24923900Y3135510D02*
X24919840Y3138680D01*
X24915100Y3140800D01*
X24909680D01*
X24903580Y3137620D01*
X24898840Y3132330D01*
X24895450Y3125980D01*
X24892740Y3115400D01*
X24892070Y3105870D01*
X24893420Y3096350D01*
X24895450Y3090000D01*
X24899520Y3083650D01*
X24904260Y3079420D01*
X24909000Y3077300D01*
X24913740D01*
X24918480Y3079420D01*
X24922550Y3082590D01*
X24925930Y3086820D01*
G01X24964880Y3140800D02*
Y3077300D01*
G01X24949300Y3140800D02*
X24980460D01*
G01X25007210Y3077300D02*
Y3140800D01*
X25024150D01*
X25029570Y3137620D01*
X25032950Y3133390D01*
X25034310Y3124920D01*
X25032950Y3116460D01*
X25028890Y3111170D01*
X25024150Y3107990D01*
X25007210D01*
G01X25024150D02*
X25034310Y3077300D01*
G01X25068510Y3140800D02*
X25084770D01*
G01X25076640D02*
Y3077300D01*
G01X25068510D02*
X25084770D01*
G01X25147420Y3135510D02*
X25143360Y3138680D01*
X25138620Y3140800D01*
X25133200D01*
X25127100Y3137620D01*
X25122360Y3132330D01*
X25118970Y3125980D01*
X25116260Y3115400D01*
X25115590Y3105870D01*
X25116940Y3096350D01*
X25118970Y3090000D01*
X25123040Y3083650D01*
X25127780Y3079420D01*
X25132520Y3077300D01*
X25137260D01*
X25142000Y3079420D01*
X25146070Y3082590D01*
X25149450Y3086820D01*
G01X25235470Y3098470D02*
X25253090D01*
G01X25343170Y3077300D02*
Y3140800D01*
X25368910D01*
G01X25359430Y3110110D02*
X25343170D01*
G01X25398370Y3077300D02*
Y3140800D01*
X25415310D01*
X25420730Y3137620D01*
X25424110Y3133390D01*
X25425470Y3124920D01*
X25424110Y3116460D01*
X25420050Y3111170D01*
X25415310Y3107990D01*
X25398370D01*
G01X25415310D02*
X25425470Y3077300D01*
G01X25458990Y3098470D02*
X25476610D01*
G01X25531810Y3077300D02*
Y3140800D01*
X25506750Y3095290D01*
X25540610D01*
G01X25635440Y3140800D02*
X25630020Y3138680D01*
X25625960Y3133390D01*
X25623250Y3127040D01*
X25621220Y3118570D01*
X25620540Y3109050D01*
X25621220Y3099520D01*
X25623250Y3091060D01*
X25625960Y3084710D01*
X25630020Y3079420D01*
X25635440Y3077300D01*
X25640860Y3079420D01*
X25644920Y3084710D01*
X25647630Y3091060D01*
X25649660Y3099520D01*
X25650340Y3109050D01*
X25649660Y3118570D01*
X25647630Y3127040D01*
X25644920Y3133390D01*
X25640860Y3138680D01*
X25635440Y3140800D01*
G01X25691320Y3075180D02*
X25689970Y3076240D01*
Y3078360D01*
X25691320Y3079420D01*
X25692670Y3078360D01*
Y3076240D01*
X25691320Y3075180D01*
G01X25734330Y3130220D02*
X25738390Y3136570D01*
X25743140Y3139740D01*
X25748550Y3140800D01*
X25755330Y3138680D01*
X25760070Y3133390D01*
X25761420Y3127040D01*
X25760750Y3120690D01*
X25758040Y3115400D01*
X25744490Y3104820D01*
X25738390Y3097410D01*
X25734330Y3086820D01*
X25732980Y3077300D01*
X25761420D01*
G01X25803080Y3140800D02*
X25797660Y3138680D01*
X25793600Y3133390D01*
X25790890Y3127040D01*
X25788860Y3118570D01*
X25788180Y3109050D01*
X25788860Y3099520D01*
X25790890Y3091060D01*
X25793600Y3084710D01*
X25797660Y3079420D01*
X25803080Y3077300D01*
X25808500Y3079420D01*
X25812560Y3084710D01*
X25815270Y3091060D01*
X25817300Y3099520D01*
X25817980Y3109050D01*
X25817300Y3118570D01*
X25815270Y3127040D01*
X25812560Y3133390D01*
X25808500Y3138680D01*
X25803080Y3140800D01*
G01X25844060Y3090000D02*
X25848120Y3082590D01*
X25853540Y3078360D01*
X25859640Y3077300D01*
X25865060Y3078360D01*
X25870480Y3083650D01*
X25873860Y3090000D01*
X25874540Y3096350D01*
X25873180Y3103760D01*
X25868440Y3109050D01*
X25863700Y3111170D01*
X25857610D01*
G01X25863700D02*
X25867770Y3114340D01*
X25871150Y3119630D01*
X25872510Y3125980D01*
X25871150Y3132330D01*
X25867770Y3137620D01*
X25861670Y3140800D01*
X25855570Y3139740D01*
X25849480Y3135510D01*
G01X25901970Y3130220D02*
X25906030Y3136570D01*
X25910780Y3139740D01*
X25916190Y3140800D01*
X25922970Y3138680D01*
X25927710Y3133390D01*
X25929060Y3127040D01*
X25928390Y3120690D01*
X25925680Y3115400D01*
X25912130Y3104820D01*
X25906030Y3097410D01*
X25901970Y3086820D01*
X25900620Y3077300D01*
X25929060D01*
G01X26008990D02*
Y3140800D01*
X26026600Y3087880D01*
X26044210Y3140800D01*
Y3077300D01*
G01X26064870D02*
Y3140800D01*
X26082480Y3087880D01*
X26100090Y3140800D01*
Y3077300D01*
G01X24447060Y5632660D02*
X24476860Y5679230D01*
G01X24461960Y5687700D02*
Y5624200D01*
G01X24476860Y5632660D02*
X24447060Y5679230D01*
G01X24441640Y5655950D02*
X24482280D01*
G01X24615380Y5643240D02*
X24620790Y5637950D01*
X24626890Y5634780D01*
X24632310D01*
X24637730Y5637950D01*
X24641790Y5643240D01*
X24643820Y5650660D01*
X24642470Y5658060D01*
X24639080Y5664410D01*
X24632990Y5668650D01*
X24624860Y5670760D01*
X24620120Y5675000D01*
X24618080Y5682400D01*
X24619440Y5689810D01*
X24622830Y5695100D01*
X24627570Y5698280D01*
X24632310D01*
X24637050Y5696160D01*
X24641120Y5690870D01*
G01X24670580Y5698280D02*
Y5652770D01*
X24673290Y5643240D01*
X24678710Y5636900D01*
X24685480Y5634780D01*
X24692250Y5636900D01*
X24697670Y5643240D01*
X24700380Y5652770D01*
Y5698280D01*
G01X24727810Y5634780D02*
Y5698280D01*
X24744750D01*
X24750170Y5695100D01*
X24753550Y5690870D01*
X24754910Y5682400D01*
X24753550Y5673940D01*
X24749490Y5668650D01*
X24744750Y5665470D01*
X24727810D01*
G01X24744750D02*
X24754910Y5634780D01*
G01X24784370D02*
Y5698280D01*
X24810110D01*
G01X24800630Y5667590D02*
X24784370D01*
G01X24836190Y5634780D02*
X24853120Y5698280D01*
X24870050Y5634780D01*
G01X24863960Y5657000D02*
X24842280D01*
G01X24923900Y5692990D02*
X24919840Y5696160D01*
X24915100Y5698280D01*
X24909680D01*
X24903580Y5695100D01*
X24898840Y5689810D01*
X24895450Y5683460D01*
X24892740Y5672880D01*
X24892070Y5663350D01*
X24893420Y5653830D01*
X24895450Y5647480D01*
X24899520Y5641130D01*
X24904260Y5636900D01*
X24909000Y5634780D01*
X24913740D01*
X24918480Y5636900D01*
X24922550Y5640070D01*
X24925930Y5644300D01*
G01X24978430Y5634780D02*
X24951330D01*
Y5698280D01*
X24978430D01*
G01X24967590Y5667590D02*
X24951330D01*
G01X25067830Y5655950D02*
X25085450D01*
G01X25171470Y5634780D02*
X25188400Y5698280D01*
X25205330Y5634780D01*
G01X25199240Y5657000D02*
X25177560D01*
G01X25236150Y5698280D02*
X25252410D01*
G01X25244280D02*
Y5634780D01*
G01X25236150D02*
X25252410D01*
G01X25286610D02*
Y5698280D01*
X25303550D01*
X25308970Y5695100D01*
X25312350Y5690870D01*
X25313710Y5682400D01*
X25312350Y5673940D01*
X25308290Y5668650D01*
X25303550Y5665470D01*
X25286610D01*
G01X25303550D02*
X25313710Y5634780D01*
G01X25411920Y5698280D02*
X25406500Y5696160D01*
X25402440Y5690870D01*
X25399730Y5684520D01*
X25397700Y5676050D01*
X25397020Y5666530D01*
X25397700Y5657000D01*
X25399730Y5648540D01*
X25402440Y5642190D01*
X25406500Y5636900D01*
X25411920Y5634780D01*
X25417340Y5636900D01*
X25421400Y5642190D01*
X25424110Y5648540D01*
X25426140Y5657000D01*
X25426820Y5666530D01*
X25426140Y5676050D01*
X25424110Y5684520D01*
X25421400Y5690870D01*
X25417340Y5696160D01*
X25411920Y5698280D01*
G01X25506070Y5634780D02*
Y5698280D01*
X25523680Y5645360D01*
X25541290Y5698280D01*
Y5634780D01*
G01X25561950D02*
Y5698280D01*
X25579560Y5645360D01*
X25597170Y5698280D01*
Y5634780D01*
G01X24336650Y5384320D02*
Y5320820D01*
X24363750D01*
G01X24406080D02*
Y5384320D01*
X24397950Y5371620D01*
G01Y5320820D02*
X24414210D01*
G01X24461960Y5318700D02*
X24460610Y5319760D01*
Y5321880D01*
X24461960Y5322940D01*
X24463310Y5321880D01*
Y5319760D01*
X24461960Y5318700D01*
G01Y5347280D02*
X24460610Y5348340D01*
Y5350450D01*
X24461960Y5351510D01*
X24463310Y5350450D01*
Y5348340D01*
X24461960Y5347280D01*
G01X24573720Y5384320D02*
Y5320820D01*
G01X24558140Y5384320D02*
X24589300D01*
G01X24629600Y5320820D02*
X24624180Y5321880D01*
X24619440Y5326110D01*
X24615380Y5332460D01*
X24612670Y5339870D01*
X24611310Y5348340D01*
Y5356800D01*
X24612670Y5365270D01*
X24615380Y5372680D01*
X24619440Y5379030D01*
X24624180Y5383260D01*
X24629600Y5384320D01*
X24635020Y5383260D01*
X24639760Y5379030D01*
X24643820Y5372680D01*
X24646530Y5365270D01*
X24647890Y5356800D01*
Y5348340D01*
X24646530Y5339870D01*
X24643820Y5332460D01*
X24639760Y5326110D01*
X24635020Y5321880D01*
X24629600Y5320820D01*
G01X24671930D02*
Y5384320D01*
X24688190D01*
X24693610Y5381140D01*
X24697670Y5373740D01*
X24699030Y5365270D01*
X24697670Y5356800D01*
X24694290Y5350450D01*
X24688190Y5347280D01*
X24671930D01*
G01X24812140Y5379030D02*
X24808080Y5382200D01*
X24803340Y5384320D01*
X24797920D01*
X24791820Y5381140D01*
X24787080Y5375850D01*
X24783690Y5369500D01*
X24780980Y5358920D01*
X24780310Y5349390D01*
X24781660Y5339870D01*
X24783690Y5333520D01*
X24787760Y5327170D01*
X24792500Y5322940D01*
X24797240Y5320820D01*
X24801980D01*
X24806720Y5322940D01*
X24810790Y5326110D01*
X24814170Y5330340D01*
G01X24853120Y5320820D02*
X24847700Y5321880D01*
X24842960Y5326110D01*
X24838900Y5332460D01*
X24836190Y5339870D01*
X24834830Y5348340D01*
Y5356800D01*
X24836190Y5365270D01*
X24838900Y5372680D01*
X24842960Y5379030D01*
X24847700Y5383260D01*
X24853120Y5384320D01*
X24858540Y5383260D01*
X24863280Y5379030D01*
X24867340Y5372680D01*
X24870050Y5365270D01*
X24871410Y5356800D01*
Y5348340D01*
X24870050Y5339870D01*
X24867340Y5332460D01*
X24863280Y5326110D01*
X24858540Y5321880D01*
X24853120Y5320820D01*
G01X24893420D02*
Y5384320D01*
X24924580Y5320820D01*
Y5384320D01*
G01X24949980Y5320820D02*
Y5384320D01*
X24963530D01*
X24968940Y5381140D01*
X24973010Y5376910D01*
X24976400Y5370560D01*
X24979100Y5363150D01*
X24979780Y5352570D01*
X24979100Y5341990D01*
X24976400Y5334580D01*
X24973010Y5328230D01*
X24968940Y5323990D01*
X24963530Y5320820D01*
X24949980D01*
G01X25005860Y5384320D02*
Y5338810D01*
X25008570Y5329280D01*
X25013990Y5322940D01*
X25020760Y5320820D01*
X25027530Y5322940D01*
X25032950Y5329280D01*
X25035660Y5338810D01*
Y5384320D01*
G01X25091540Y5379030D02*
X25087480Y5382200D01*
X25082740Y5384320D01*
X25077320D01*
X25071220Y5381140D01*
X25066480Y5375850D01*
X25063090Y5369500D01*
X25060380Y5358920D01*
X25059710Y5349390D01*
X25061060Y5339870D01*
X25063090Y5333520D01*
X25067160Y5327170D01*
X25071900Y5322940D01*
X25076640Y5320820D01*
X25081380D01*
X25086120Y5322940D01*
X25090190Y5326110D01*
X25093570Y5330340D01*
G01X25132520Y5384320D02*
Y5320820D01*
G01X25116940Y5384320D02*
X25148100D01*
G01X25188400Y5320820D02*
X25182980Y5321880D01*
X25178240Y5326110D01*
X25174180Y5332460D01*
X25171470Y5339870D01*
X25170110Y5348340D01*
Y5356800D01*
X25171470Y5365270D01*
X25174180Y5372680D01*
X25178240Y5379030D01*
X25182980Y5383260D01*
X25188400Y5384320D01*
X25193820Y5383260D01*
X25198560Y5379030D01*
X25202620Y5372680D01*
X25205330Y5365270D01*
X25206690Y5356800D01*
Y5348340D01*
X25205330Y5339870D01*
X25202620Y5332460D01*
X25198560Y5326110D01*
X25193820Y5321880D01*
X25188400Y5320820D01*
G01X25230730D02*
Y5384320D01*
X25247670D01*
X25253090Y5381140D01*
X25256470Y5376910D01*
X25257830Y5368440D01*
X25256470Y5359980D01*
X25252410Y5354690D01*
X25247670Y5351510D01*
X25230730D01*
G01X25247670D02*
X25257830Y5320820D01*
G01X25347230Y5341990D02*
X25364850D01*
G01X25482700Y5379030D02*
X25478640Y5382200D01*
X25473900Y5384320D01*
X25468480D01*
X25462380Y5381140D01*
X25457640Y5375850D01*
X25454250Y5369500D01*
X25451540Y5358920D01*
X25450870Y5349390D01*
X25452220Y5339870D01*
X25454250Y5333520D01*
X25458320Y5327170D01*
X25463060Y5322940D01*
X25467800Y5320820D01*
X25472540D01*
X25477280Y5322940D01*
X25481350Y5326110D01*
X25484730Y5330340D01*
G01X25523680Y5320820D02*
X25518260Y5321880D01*
X25513520Y5326110D01*
X25509460Y5332460D01*
X25506750Y5339870D01*
X25505390Y5348340D01*
Y5356800D01*
X25506750Y5365270D01*
X25509460Y5372680D01*
X25513520Y5379030D01*
X25518260Y5383260D01*
X25523680Y5384320D01*
X25529100Y5383260D01*
X25533840Y5379030D01*
X25537900Y5372680D01*
X25540610Y5365270D01*
X25541970Y5356800D01*
Y5348340D01*
X25540610Y5339870D01*
X25537900Y5332460D01*
X25533840Y5326110D01*
X25529100Y5321880D01*
X25523680Y5320820D01*
G01X25566010D02*
Y5384320D01*
X25582270D01*
X25587690Y5381140D01*
X25591750Y5373740D01*
X25593110Y5365270D01*
X25591750Y5356800D01*
X25588370Y5350450D01*
X25582270Y5347280D01*
X25566010D01*
G01X25621890Y5320820D02*
Y5384320D01*
X25638150D01*
X25643570Y5381140D01*
X25647630Y5373740D01*
X25648990Y5365270D01*
X25647630Y5356800D01*
X25644250Y5350450D01*
X25638150Y5347280D01*
X25621890D01*
G01X25704870Y5320820D02*
X25677770D01*
Y5384320D01*
X25704870D01*
G01X25694030Y5353630D02*
X25677770D01*
G01X25733650Y5320820D02*
Y5384320D01*
X25750590D01*
X25756010Y5381140D01*
X25759390Y5376910D01*
X25760750Y5368440D01*
X25759390Y5359980D01*
X25755330Y5354690D01*
X25750590Y5351510D01*
X25733650D01*
G01X25750590D02*
X25760750Y5320820D01*
G01X25858960Y5384320D02*
X25853540Y5382200D01*
X25849480Y5376910D01*
X25846770Y5370560D01*
X25844740Y5362090D01*
X25844060Y5352570D01*
X25844740Y5343040D01*
X25846770Y5334580D01*
X25849480Y5328230D01*
X25853540Y5322940D01*
X25858960Y5320820D01*
X25864380Y5322940D01*
X25868440Y5328230D01*
X25871150Y5334580D01*
X25873180Y5343040D01*
X25873860Y5352570D01*
X25873180Y5362090D01*
X25871150Y5370560D01*
X25868440Y5376910D01*
X25864380Y5382200D01*
X25858960Y5384320D01*
G01X25914840Y5318700D02*
X25913490Y5319760D01*
Y5321880D01*
X25914840Y5322940D01*
X25916190Y5321880D01*
Y5319760D01*
X25914840Y5318700D01*
G01X25970720Y5384320D02*
X25965300Y5382200D01*
X25961240Y5376910D01*
X25958530Y5370560D01*
X25956500Y5362090D01*
X25955820Y5352570D01*
X25956500Y5343040D01*
X25958530Y5334580D01*
X25961240Y5328230D01*
X25965300Y5322940D01*
X25970720Y5320820D01*
X25976140Y5322940D01*
X25980200Y5328230D01*
X25982910Y5334580D01*
X25984940Y5343040D01*
X25985620Y5352570D01*
X25984940Y5362090D01*
X25982910Y5370560D01*
X25980200Y5376910D01*
X25976140Y5382200D01*
X25970720Y5384320D01*
G01X26011700Y5333520D02*
X26015760Y5326110D01*
X26021180Y5321880D01*
X26027280Y5320820D01*
X26032700Y5321880D01*
X26038120Y5327170D01*
X26041500Y5333520D01*
X26042180Y5339870D01*
X26040820Y5347280D01*
X26036080Y5352570D01*
X26031340Y5354690D01*
X26025250D01*
G01X26031340D02*
X26035410Y5357860D01*
X26038790Y5363150D01*
X26040150Y5369500D01*
X26038790Y5375850D01*
X26035410Y5381140D01*
X26029310Y5384320D01*
X26023210Y5383260D01*
X26017120Y5379030D01*
G01X26082480Y5384320D02*
X26077060Y5382200D01*
X26073000Y5376910D01*
X26070290Y5370560D01*
X26068260Y5362090D01*
X26067580Y5352570D01*
X26068260Y5343040D01*
X26070290Y5334580D01*
X26073000Y5328230D01*
X26077060Y5322940D01*
X26082480Y5320820D01*
X26087900Y5322940D01*
X26091960Y5328230D01*
X26094670Y5334580D01*
X26096700Y5343040D01*
X26097380Y5352570D01*
X26096700Y5362090D01*
X26094670Y5370560D01*
X26091960Y5376910D01*
X26087900Y5382200D01*
X26082480Y5384320D01*
G01X26123460Y5330340D02*
X26127520Y5325050D01*
X26132260Y5321880D01*
X26138360Y5320820D01*
X26144460Y5322940D01*
X26149200Y5327170D01*
X26152580Y5334580D01*
X26153260Y5343040D01*
X26151910Y5351510D01*
X26148520Y5356800D01*
X26143780Y5361040D01*
X26139040Y5362090D01*
X26134300Y5361040D01*
X26128200Y5356800D01*
X26130230Y5384320D01*
X26148520D01*
G01X26232510Y5320820D02*
Y5384320D01*
X26250120Y5331400D01*
X26267730Y5384320D01*
Y5320820D01*
G01X26288390D02*
Y5384320D01*
X26306000Y5331400D01*
X26323610Y5384320D01*
Y5320820D01*
G01X64000Y32000D02*
Y6032000D01*
X7564000D01*
Y32000D01*
X64000D01*
G01X9275000Y505000D02*
Y5600000D01*
X21558440D01*
Y505000D01*
X9275000D01*
G01Y1140000D02*
X21558440D01*
G01X9275000Y1775000D02*
X21558440D01*
G01X9275000Y2410000D02*
X21558440D01*
G01X9275000Y3045000D02*
X21558440D01*
G01X9554520Y3838750D02*
Y4156250D01*
X9704140D01*
G01X9649010Y4002800D02*
X9554520D01*
G01X9897050Y4156250D02*
X9991530D01*
G01X9944290D02*
Y3838750D01*
G01X9897050D02*
X9991530D01*
G01X10282870Y3997500D02*
X10361620D01*
Y3902250D01*
X10337990Y3870490D01*
X10310430Y3849330D01*
X10271060Y3838750D01*
X10231690Y3849330D01*
X10204130Y3870490D01*
X10180510Y3902250D01*
X10164760Y3939290D01*
X10156880Y3981620D01*
Y4018670D01*
X10164760Y4050410D01*
X10180510Y4087460D01*
X10204130Y4119210D01*
X10227750Y4140370D01*
X10259250Y4156250D01*
X10286810D01*
X10318300Y4145670D01*
X10341930Y4124500D01*
G01X10487600Y4156250D02*
Y3928710D01*
X10503340Y3881070D01*
X10534840Y3849330D01*
X10574210Y3838750D01*
X10613580Y3849330D01*
X10645080Y3881070D01*
X10660820Y3928710D01*
Y4156250D01*
G01X10810430Y3838750D02*
Y4156250D01*
X10908850D01*
X10940350Y4140370D01*
X10960040Y4119210D01*
X10967910Y4076870D01*
X10960040Y4034540D01*
X10936410Y4008090D01*
X10908850Y3992200D01*
X10810430D01*
G01X10908850D02*
X10967910Y3838750D01*
G01X11282870D02*
X11125390D01*
Y4156250D01*
X11282870D01*
G01X11219880Y4002800D02*
X11125390D01*
G01X9275000Y4315000D02*
X21558440D01*
G01X9275000Y3680000D02*
X21558440D01*
G01X9275000Y4950000D02*
X21558440D01*
G01X11393110Y5123750D02*
Y5441250D01*
X11471840D01*
X11503340Y5425370D01*
X11526960Y5404210D01*
X11546650Y5372460D01*
X11562400Y5335410D01*
X11566330Y5282500D01*
X11562400Y5229580D01*
X11546650Y5192540D01*
X11526960Y5160780D01*
X11503340Y5139620D01*
X11471840Y5123750D01*
X11393110D01*
G01X11715940D02*
Y5441250D01*
X11814360D01*
X11845860Y5425370D01*
X11865550Y5404210D01*
X11873420Y5361870D01*
X11865550Y5319540D01*
X11841920Y5293090D01*
X11814360Y5277200D01*
X11715940D01*
G01X11814360D02*
X11873420Y5123750D01*
G01X12062400Y5441250D02*
X12156880D01*
G01X12109640D02*
Y5123750D01*
G01X12062400D02*
X12156880D01*
G01X12345860Y5441250D02*
Y5123750D01*
X12503340D01*
G01X12660820Y5441250D02*
Y5123750D01*
X12818300D01*
G01X13456090Y5414790D02*
X13432470Y5430670D01*
X13404920Y5441250D01*
X13373420D01*
X13337980Y5425370D01*
X13310430Y5398920D01*
X13290740Y5367160D01*
X13274990Y5314250D01*
X13271050Y5266620D01*
X13278930Y5219000D01*
X13290740Y5187250D01*
X13314360Y5155490D01*
X13341920Y5134330D01*
X13369480Y5123750D01*
X13397040D01*
X13424600Y5134330D01*
X13448220Y5150200D01*
X13467910Y5171360D01*
G01X13601760Y5123750D02*
Y5441250D01*
G01X13767120D02*
Y5123750D01*
G01Y5282500D02*
X13601760D01*
G01X13900970Y5123750D02*
X13999400Y5441250D01*
X14097830Y5123750D01*
G01X14062390Y5234870D02*
X13936400D01*
G01X14235620Y5123750D02*
Y5441250D01*
X14334040D01*
X14365540Y5425370D01*
X14385230Y5404210D01*
X14393100Y5361870D01*
X14385230Y5319540D01*
X14361600Y5293090D01*
X14334040Y5277200D01*
X14235620D01*
G01X14334040D02*
X14393100Y5123750D01*
G01X14629320Y5441250D02*
Y5123750D01*
G01X14538770Y5441250D02*
X14719870D01*
G01X14944280Y5113170D02*
X14936400Y5118460D01*
Y5129040D01*
X14944280Y5134330D01*
X14952160Y5129040D01*
Y5118460D01*
X14944280Y5113170D01*
G01Y5256030D02*
X14936400Y5261330D01*
Y5271910D01*
X14944280Y5277200D01*
X14952160Y5271910D01*
Y5261330D01*
X14944280Y5256030D01*
G01X15574200Y5441250D02*
Y5123750D01*
G01X15483650Y5441250D02*
X15664750D01*
G01X15889160Y5123750D02*
X15857660Y5129040D01*
X15830110Y5150200D01*
X15806480Y5181960D01*
X15790730Y5219000D01*
X15782860Y5261330D01*
Y5303670D01*
X15790730Y5346000D01*
X15806480Y5383040D01*
X15830110Y5414790D01*
X15857660Y5435960D01*
X15889160Y5441250D01*
X15920650Y5435960D01*
X15948210Y5414790D01*
X15971840Y5383040D01*
X15987590Y5346000D01*
X15995460Y5303670D01*
Y5261330D01*
X15987590Y5219000D01*
X15971840Y5181960D01*
X15948210Y5150200D01*
X15920650Y5129040D01*
X15889160Y5123750D01*
G01X16125380D02*
Y5441250D01*
X16219870D01*
X16251360Y5425370D01*
X16274990Y5388330D01*
X16282860Y5346000D01*
X16274990Y5303670D01*
X16255300Y5271910D01*
X16219870Y5256030D01*
X16125380D01*
G01X16834040Y5441250D02*
Y5123750D01*
G01X16778920Y5335410D02*
X16889160D01*
G01X17149000Y5123750D02*
X17125380Y5129040D01*
X17101760Y5150200D01*
X17086000Y5187250D01*
X17078130Y5229580D01*
X17086000Y5271910D01*
X17101760Y5308960D01*
X17125380Y5330120D01*
X17149000Y5335410D01*
X17172620Y5330120D01*
X17196240Y5308960D01*
X17211990Y5271910D01*
X17215930Y5229580D01*
X17211990Y5187250D01*
X17196240Y5150200D01*
X17172620Y5129040D01*
X17149000Y5123750D01*
G01X17810410Y5293090D02*
X17826160Y5308960D01*
X17837970Y5335410D01*
X17845850Y5372460D01*
X17837970Y5404210D01*
X17822230Y5425370D01*
X17794670Y5441250D01*
X17688370D01*
Y5123750D01*
X17818290D01*
X17845850Y5144910D01*
X17861600Y5176670D01*
X17869470Y5213710D01*
X17861600Y5250740D01*
X17837970Y5282500D01*
X17810410Y5293090D01*
X17688370D01*
G01X18093880Y5123750D02*
X18062380Y5129040D01*
X18034830Y5150200D01*
X18011200Y5181960D01*
X17995450Y5219000D01*
X17987580Y5261330D01*
Y5303670D01*
X17995450Y5346000D01*
X18011200Y5383040D01*
X18034830Y5414790D01*
X18062380Y5435960D01*
X18093880Y5441250D01*
X18125370Y5435960D01*
X18152930Y5414790D01*
X18176560Y5383040D01*
X18192310Y5346000D01*
X18200180Y5303670D01*
Y5261330D01*
X18192310Y5219000D01*
X18176560Y5181960D01*
X18152930Y5150200D01*
X18125370Y5129040D01*
X18093880Y5123750D01*
G01X18408840Y5441250D02*
Y5123750D01*
G01X18318290Y5441250D02*
X18499390D01*
G01X18723800D02*
Y5123750D01*
G01X18633250Y5441250D02*
X18814350D01*
G01X19038760Y5123750D02*
X19007260Y5129040D01*
X18979710Y5150200D01*
X18956080Y5181960D01*
X18940330Y5219000D01*
X18932460Y5261330D01*
Y5303670D01*
X18940330Y5346000D01*
X18956080Y5383040D01*
X18979710Y5414790D01*
X19007260Y5435960D01*
X19038760Y5441250D01*
X19070250Y5435960D01*
X19097810Y5414790D01*
X19121440Y5383040D01*
X19137190Y5346000D01*
X19145060Y5303670D01*
Y5261330D01*
X19137190Y5219000D01*
X19121440Y5181960D01*
X19097810Y5150200D01*
X19070250Y5129040D01*
X19038760Y5123750D01*
G01X19251350D02*
Y5441250D01*
X19353720Y5176670D01*
X19456090Y5441250D01*
Y5123750D01*
G01X11066330Y4473750D02*
X11164760Y4791250D01*
X11263190Y4473750D01*
G01X11227750Y4584870D02*
X11101760D01*
G01X11400980Y4791250D02*
Y4473750D01*
X11558460D01*
G01X11715940Y4791250D02*
Y4473750D01*
X11873420D01*
G01X12337990Y4791250D02*
Y4563710D01*
X12353730Y4516070D01*
X12385230Y4484330D01*
X12424600Y4473750D01*
X12463970Y4484330D01*
X12495470Y4516070D01*
X12511210Y4563710D01*
Y4791250D01*
G01X12649010Y4473750D02*
Y4791250D01*
X12830110Y4473750D01*
Y4791250D01*
G01X13007280D02*
X13101760D01*
G01X13054520D02*
Y4473750D01*
G01X13007280D02*
X13101760D01*
G01X13369480Y4791250D02*
Y4473750D01*
G01X13278930Y4791250D02*
X13460030D01*
G01X13601760Y4516070D02*
X13633260Y4489620D01*
X13668690Y4473750D01*
X13700190D01*
X13731680Y4489620D01*
X13755310Y4516070D01*
X13767120Y4553130D01*
X13759250Y4590160D01*
X13739560Y4621910D01*
X13704120Y4643090D01*
X13656880Y4653670D01*
X13629320Y4674830D01*
X13617510Y4711870D01*
X13625390Y4748920D01*
X13645070Y4775370D01*
X13672630Y4791250D01*
X13700190D01*
X13727750Y4780670D01*
X13751370Y4754210D01*
G01X14215930Y4473750D02*
X14314360Y4791250D01*
X14412790Y4473750D01*
G01X14377350Y4584870D02*
X14251360D01*
G01X14550580Y4473750D02*
Y4791250D01*
X14649000D01*
X14680500Y4775370D01*
X14700190Y4754210D01*
X14708060Y4711870D01*
X14700190Y4669540D01*
X14676560Y4643090D01*
X14649000Y4627200D01*
X14550580D01*
G01X14649000D02*
X14708060Y4473750D01*
G01X15023020D02*
X14865540D01*
Y4791250D01*
X15023020D01*
G01X14960030Y4637800D02*
X14865540D01*
G01X15526960Y4791250D02*
X15621440D01*
G01X15574200D02*
Y4473750D01*
G01X15526960D02*
X15621440D01*
G01X15798610D02*
Y4791250D01*
X15979710Y4473750D01*
Y4791250D01*
G01X16416710Y4473750D02*
Y4791250D01*
X16519080Y4526670D01*
X16621450Y4791250D01*
Y4473750D01*
G01X16786800Y4791250D02*
X16881280D01*
G01X16834040D02*
Y4473750D01*
G01X16786800D02*
X16881280D01*
G01X17070260Y4791250D02*
Y4473750D01*
X17227740D01*
G01X17385220Y4791250D02*
Y4473750D01*
X17542700D01*
G01X17731680Y4791250D02*
X17826160D01*
G01X17778920D02*
Y4473750D01*
G01X17731680D02*
X17826160D01*
G01X17991510D02*
Y4791250D01*
X18093880Y4526670D01*
X18196250Y4791250D01*
Y4473750D01*
G01X18487580D02*
X18330100D01*
Y4791250D01*
X18487580D01*
G01X18424590Y4637800D02*
X18330100D01*
G01X18723800Y4791250D02*
Y4473750D01*
G01X18633250Y4791250D02*
X18814350D01*
G01X19117500Y4473750D02*
X18960020D01*
Y4791250D01*
X19117500D01*
G01X19054510Y4637800D02*
X18960020D01*
G01X19274980Y4473750D02*
Y4791250D01*
X19373400D01*
X19404900Y4775370D01*
X19424590Y4754210D01*
X19432460Y4711870D01*
X19424590Y4669540D01*
X19400960Y4643090D01*
X19373400Y4627200D01*
X19274980D01*
G01X19373400D02*
X19432460Y4473750D01*
G01X19586000Y4516070D02*
X19617500Y4489620D01*
X19652930Y4473750D01*
X19684430D01*
X19715920Y4489620D01*
X19739550Y4516070D01*
X19751360Y4553130D01*
X19743490Y4590160D01*
X19723800Y4621910D01*
X19688360Y4643090D01*
X19641120Y4653670D01*
X19613560Y4674830D01*
X19601750Y4711870D01*
X19609630Y4748920D01*
X19629310Y4775370D01*
X19656870Y4791250D01*
X19684430D01*
X19711990Y4780670D01*
X19735610Y4754210D01*
G01X11558460Y4315000D02*
Y505000D01*
G01X13172630Y1298750D02*
Y1616250D01*
X13125390Y1552750D01*
G01Y1298750D02*
X13219870D01*
G01X13487590Y1288170D02*
X13479710Y1293460D01*
Y1304040D01*
X13487590Y1309330D01*
X13495470Y1304040D01*
Y1293460D01*
X13487590Y1288170D01*
G01X13802550Y1616250D02*
X13771050Y1605670D01*
X13747430Y1579210D01*
X13731680Y1547460D01*
X13719870Y1505120D01*
X13715940Y1457500D01*
X13719870Y1409870D01*
X13731680Y1367540D01*
X13747430Y1335780D01*
X13771050Y1309330D01*
X13802550Y1298750D01*
X13834040Y1309330D01*
X13857670Y1335780D01*
X13873420Y1367540D01*
X13885230Y1409870D01*
X13889160Y1457500D01*
X13885230Y1505120D01*
X13873420Y1547460D01*
X13857670Y1579210D01*
X13834040Y1605670D01*
X13802550Y1616250D01*
G01X14042700Y1431030D02*
X14070270Y1468090D01*
X14093890Y1489250D01*
X14125390Y1499830D01*
X14152950Y1489250D01*
X14172630Y1468090D01*
X14188380Y1436330D01*
X14192320Y1399290D01*
X14188380Y1367540D01*
X14172630Y1335780D01*
X14149000Y1309330D01*
X14121450Y1298750D01*
X14089950Y1309330D01*
X14062390Y1341070D01*
X14046640Y1388710D01*
X14042700Y1441620D01*
X14050580Y1510410D01*
X14062390Y1547460D01*
X14082070Y1584500D01*
X14109630Y1610960D01*
X14137190Y1616250D01*
X14164750Y1605670D01*
X14184440Y1579210D01*
G01X14357660Y1431030D02*
X14385230Y1468090D01*
X14408850Y1489250D01*
X14440350Y1499830D01*
X14467910Y1489250D01*
X14487590Y1468090D01*
X14503340Y1436330D01*
X14507280Y1399290D01*
X14503340Y1367540D01*
X14487590Y1335780D01*
X14463960Y1309330D01*
X14436410Y1298750D01*
X14404910Y1309330D01*
X14377350Y1341070D01*
X14361600Y1388710D01*
X14357660Y1441620D01*
X14365540Y1510410D01*
X14377350Y1547460D01*
X14397030Y1584500D01*
X14424590Y1610960D01*
X14452150Y1616250D01*
X14479710Y1605670D01*
X14499400Y1579210D01*
G01X14747430Y1298750D02*
X14774990Y1304040D01*
X14806480Y1319910D01*
X14826170Y1346360D01*
X14834040Y1383420D01*
X14826170Y1420450D01*
X14802550Y1452200D01*
X14767110Y1468090D01*
X14727750D01*
X14704120Y1478670D01*
X14684430Y1505120D01*
X14676560Y1542160D01*
X14688380Y1579210D01*
X14715930Y1605670D01*
X14747430Y1616250D01*
X14778920Y1605670D01*
X14806480Y1579210D01*
X14818300Y1542160D01*
X14810420Y1505120D01*
X14790740Y1478670D01*
X14767110Y1468090D01*
X14727750D01*
X14692310Y1452200D01*
X14668690Y1420450D01*
X14660820Y1383420D01*
X14668690Y1346360D01*
X14688380Y1319910D01*
X14719870Y1304040D01*
X14747430Y1298750D01*
G01X13558460Y727250D02*
X13582070Y690200D01*
X13613570Y669040D01*
X13649010Y663750D01*
X13680510Y669040D01*
X13712000Y695490D01*
X13731680Y727250D01*
X13735620Y759000D01*
X13727750Y796030D01*
X13700190Y822500D01*
X13672630Y833090D01*
X13637190D01*
G01X13672630D02*
X13696250Y848960D01*
X13715940Y875410D01*
X13723810Y907160D01*
X13715940Y938920D01*
X13696250Y965370D01*
X13660820Y981250D01*
X13625390Y975960D01*
X13589950Y954790D01*
G01X13960030Y653170D02*
X13952150Y658460D01*
Y669040D01*
X13960030Y674330D01*
X13967910Y669040D01*
Y658460D01*
X13960030Y653170D01*
G01X14200180Y928330D02*
X14223810Y960080D01*
X14251370Y975960D01*
X14282870Y981250D01*
X14322230Y970670D01*
X14349800Y944210D01*
X14357670Y912460D01*
X14353730Y880700D01*
X14337980Y854250D01*
X14259240Y801330D01*
X14223810Y764290D01*
X14200180Y711360D01*
X14192310Y663750D01*
X14357670D01*
G01X13172630Y2251250D02*
X13141130Y2240670D01*
X13117510Y2214210D01*
X13101760Y2182460D01*
X13089950Y2140120D01*
X13086020Y2092500D01*
X13089950Y2044870D01*
X13101760Y2002540D01*
X13117510Y1970780D01*
X13141130Y1944330D01*
X13172630Y1933750D01*
X13204120Y1944330D01*
X13227750Y1970780D01*
X13243500Y2002540D01*
X13255310Y2044870D01*
X13259240Y2092500D01*
X13255310Y2140120D01*
X13243500Y2182460D01*
X13227750Y2214210D01*
X13204120Y2240670D01*
X13172630Y2251250D01*
G01X13487590Y1923170D02*
X13479710Y1928460D01*
Y1939040D01*
X13487590Y1944330D01*
X13495470Y1939040D01*
Y1928460D01*
X13487590Y1923170D01*
G01X13735620Y1970780D02*
X13763180Y1944330D01*
X13794670Y1933750D01*
X13826170Y1944330D01*
X13853730Y1976070D01*
X13873420Y2023710D01*
X13881290Y2071330D01*
Y2129540D01*
X13873420Y2177160D01*
X13853730Y2219500D01*
X13830110Y2240670D01*
X13802550Y2251250D01*
X13771050Y2240670D01*
X13747430Y2219500D01*
X13731680Y2187750D01*
X13723810Y2145410D01*
X13731680Y2108380D01*
X13751370Y2071330D01*
X13774990Y2050160D01*
X13802550Y2044870D01*
X13834040Y2055450D01*
X13857670Y2081910D01*
X13881290Y2129540D01*
G01X14117510Y1933750D02*
Y2251250D01*
X14070270Y2187750D01*
G01Y1933750D02*
X14164750D01*
G01X14479710D02*
Y2251250D01*
X14334040Y2023710D01*
X14530900D01*
G01X14794670Y1933750D02*
Y2251250D01*
X14649000Y2023710D01*
X14845860D01*
G01X13330110Y2886250D02*
X13298610Y2875670D01*
X13274990Y2849210D01*
X13259240Y2817460D01*
X13247430Y2775120D01*
X13243500Y2727500D01*
X13247430Y2679870D01*
X13259240Y2637540D01*
X13274990Y2605780D01*
X13298610Y2579330D01*
X13330110Y2568750D01*
X13361600Y2579330D01*
X13385230Y2605780D01*
X13400980Y2637540D01*
X13412790Y2679870D01*
X13416720Y2727500D01*
X13412790Y2775120D01*
X13400980Y2817460D01*
X13385230Y2849210D01*
X13361600Y2875670D01*
X13330110Y2886250D01*
G01X13645070Y2558170D02*
X13637190Y2563460D01*
Y2574040D01*
X13645070Y2579330D01*
X13652950Y2574040D01*
Y2563460D01*
X13645070Y2558170D01*
G01X13885220Y2701030D02*
X13912790Y2738090D01*
X13936410Y2759250D01*
X13967910Y2769830D01*
X13995470Y2759250D01*
X14015150Y2738090D01*
X14030900Y2706330D01*
X14034840Y2669290D01*
X14030900Y2637540D01*
X14015150Y2605780D01*
X13991520Y2579330D01*
X13963970Y2568750D01*
X13932470Y2579330D01*
X13904910Y2611070D01*
X13889160Y2658710D01*
X13885220Y2711620D01*
X13893100Y2780410D01*
X13904910Y2817460D01*
X13924590Y2854500D01*
X13952150Y2880960D01*
X13979710Y2886250D01*
X14007270Y2875670D01*
X14026960Y2849210D01*
G01X14188380Y2632250D02*
X14211990Y2595200D01*
X14243490Y2574040D01*
X14278930Y2568750D01*
X14310430Y2574040D01*
X14341920Y2600490D01*
X14361600Y2632250D01*
X14365540Y2664000D01*
X14357670Y2701030D01*
X14330110Y2727500D01*
X14302550Y2738090D01*
X14267110D01*
G01X14302550D02*
X14326170Y2753960D01*
X14345860Y2780410D01*
X14353730Y2812160D01*
X14345860Y2843920D01*
X14326170Y2870370D01*
X14290740Y2886250D01*
X14255310Y2880960D01*
X14219870Y2859790D01*
G01X14503340Y2616360D02*
X14526950Y2589910D01*
X14554510Y2574040D01*
X14589950Y2568750D01*
X14625390Y2579330D01*
X14652940Y2600490D01*
X14672630Y2637540D01*
X14676560Y2679870D01*
X14668690Y2722200D01*
X14649000Y2748670D01*
X14621440Y2769830D01*
X14593890Y2775120D01*
X14566330Y2769830D01*
X14530900Y2748670D01*
X14542710Y2886250D01*
X14649000D01*
G01X13172630Y3521250D02*
X13141130Y3510670D01*
X13117510Y3484210D01*
X13101760Y3452460D01*
X13089950Y3410120D01*
X13086020Y3362500D01*
X13089950Y3314870D01*
X13101760Y3272540D01*
X13117510Y3240780D01*
X13141130Y3214330D01*
X13172630Y3203750D01*
X13204120Y3214330D01*
X13227750Y3240780D01*
X13243500Y3272540D01*
X13255310Y3314870D01*
X13259240Y3362500D01*
X13255310Y3410120D01*
X13243500Y3452460D01*
X13227750Y3484210D01*
X13204120Y3510670D01*
X13172630Y3521250D01*
G01X13487590Y3193170D02*
X13479710Y3198460D01*
Y3209040D01*
X13487590Y3214330D01*
X13495470Y3209040D01*
Y3198460D01*
X13487590Y3193170D01*
G01X13715940Y3267250D02*
X13739550Y3230200D01*
X13771050Y3209040D01*
X13806490Y3203750D01*
X13837990Y3209040D01*
X13869480Y3235490D01*
X13889160Y3267250D01*
X13893100Y3299000D01*
X13885230Y3336030D01*
X13857670Y3362500D01*
X13830110Y3373090D01*
X13794670D01*
G01X13830110D02*
X13853730Y3388960D01*
X13873420Y3415410D01*
X13881290Y3447160D01*
X13873420Y3478920D01*
X13853730Y3505370D01*
X13818300Y3521250D01*
X13782870Y3515960D01*
X13747430Y3494790D01*
G01X14030900Y3267250D02*
X14054510Y3230200D01*
X14086010Y3209040D01*
X14121450Y3203750D01*
X14152950Y3209040D01*
X14184440Y3235490D01*
X14204120Y3267250D01*
X14208060Y3299000D01*
X14200190Y3336030D01*
X14172630Y3362500D01*
X14145070Y3373090D01*
X14109630D01*
G01X14145070D02*
X14168690Y3388960D01*
X14188380Y3415410D01*
X14196250Y3447160D01*
X14188380Y3478920D01*
X14168690Y3505370D01*
X14133260Y3521250D01*
X14097830Y3515960D01*
X14062390Y3494790D01*
G01X14432470Y3521250D02*
X14400970Y3510670D01*
X14377350Y3484210D01*
X14361600Y3452460D01*
X14349790Y3410120D01*
X14345860Y3362500D01*
X14349790Y3314870D01*
X14361600Y3272540D01*
X14377350Y3240780D01*
X14400970Y3214330D01*
X14432470Y3203750D01*
X14463960Y3214330D01*
X14487590Y3240780D01*
X14503340Y3272540D01*
X14515150Y3314870D01*
X14519080Y3362500D01*
X14515150Y3410120D01*
X14503340Y3452460D01*
X14487590Y3484210D01*
X14463960Y3510670D01*
X14432470Y3521250D01*
G01X14672620Y3468330D02*
X14696250Y3500080D01*
X14723810Y3515960D01*
X14755310Y3521250D01*
X14794670Y3510670D01*
X14822240Y3484210D01*
X14830110Y3452460D01*
X14826170Y3420700D01*
X14810420Y3394250D01*
X14731680Y3341330D01*
X14696250Y3304290D01*
X14672620Y3251360D01*
X14664750Y3203750D01*
X14830110D01*
G01X13404910Y3881070D02*
X13436410Y3854620D01*
X13471840Y3838750D01*
X13503340D01*
X13534830Y3854620D01*
X13558460Y3881070D01*
X13570270Y3918130D01*
X13562400Y3955160D01*
X13542710Y3986910D01*
X13507270Y4008090D01*
X13460030Y4018670D01*
X13432470Y4039830D01*
X13420660Y4076870D01*
X13428540Y4113920D01*
X13448220Y4140370D01*
X13475780Y4156250D01*
X13503340D01*
X13530900Y4145670D01*
X13554520Y4119210D01*
G01X13755310Y4156250D02*
X13849790D01*
G01X13802550D02*
Y3838750D01*
G01X13755310D02*
X13849790D01*
G01X14042700Y4156250D02*
X14192320D01*
X14042700Y3838750D01*
X14192320D01*
G01X14511210D02*
X14353730D01*
Y4156250D01*
X14511210D01*
G01X14448220Y4002800D02*
X14353730D01*
G01X16361600Y4315000D02*
Y505000D01*
G01X16467900Y663750D02*
Y981250D01*
X16649000Y663750D01*
Y981250D01*
G01X16873410Y663750D02*
X16841910Y669040D01*
X16814360Y690200D01*
X16790730Y721960D01*
X16774980Y759000D01*
X16767110Y801330D01*
Y843670D01*
X16774980Y886000D01*
X16790730Y923040D01*
X16814360Y954790D01*
X16841910Y975960D01*
X16873410Y981250D01*
X16904900Y975960D01*
X16932460Y954790D01*
X16956090Y923040D01*
X16971840Y886000D01*
X16979710Y843670D01*
Y801330D01*
X16971840Y759000D01*
X16956090Y721960D01*
X16932460Y690200D01*
X16904900Y669040D01*
X16873410Y663750D01*
G01X17097820D02*
Y981250D01*
X17278920Y663750D01*
Y981250D01*
G01X17452150Y769580D02*
X17554510D01*
G01X17739550Y663750D02*
Y981250D01*
X17834040D01*
X17865530Y965370D01*
X17889160Y928330D01*
X17897030Y886000D01*
X17889160Y843670D01*
X17869470Y811910D01*
X17834040Y796030D01*
X17739550D01*
G01X18054510Y981250D02*
Y663750D01*
X18211990D01*
G01X18349780D02*
X18448210Y981250D01*
X18546640Y663750D01*
G01X18511200Y774870D02*
X18385210D01*
G01X18763170Y981250D02*
Y663750D01*
G01X18672620Y981250D02*
X18853720D01*
G01X19156870Y663750D02*
X18999390D01*
Y981250D01*
X19156870D01*
G01X19093880Y827800D02*
X18999390D01*
G01X19306480Y663750D02*
Y981250D01*
X19385210D01*
X19416710Y965370D01*
X19440330Y944210D01*
X19460020Y912460D01*
X19475770Y875410D01*
X19479700Y822500D01*
X19475770Y769580D01*
X19460020Y732540D01*
X19440330Y700780D01*
X19416710Y679620D01*
X19385210Y663750D01*
X19306480D01*
G01X17109630Y1298750D02*
Y1616250D01*
X17204120D01*
X17235610Y1600370D01*
X17259240Y1563330D01*
X17267110Y1521000D01*
X17259240Y1478670D01*
X17239550Y1446910D01*
X17204120Y1431030D01*
X17109630D01*
G01X17424590Y1616250D02*
Y1298750D01*
X17582070D01*
G01X17719860D02*
X17818290Y1616250D01*
X17916720Y1298750D01*
G01X17881280Y1409870D02*
X17755290D01*
G01X18133250Y1616250D02*
Y1298750D01*
G01X18042700Y1616250D02*
X18223800D01*
G01X18526950Y1298750D02*
X18369470D01*
Y1616250D01*
X18526950D01*
G01X18463960Y1462800D02*
X18369470D01*
G01X18676560Y1298750D02*
Y1616250D01*
X18755290D01*
X18786790Y1600370D01*
X18810410Y1579210D01*
X18830100Y1547460D01*
X18845850Y1510410D01*
X18849780Y1457500D01*
X18845850Y1404580D01*
X18830100Y1367540D01*
X18810410Y1335780D01*
X18786790Y1314620D01*
X18755290Y1298750D01*
X18676560D01*
G01X17109630Y1933750D02*
Y2251250D01*
X17204120D01*
X17235610Y2235370D01*
X17259240Y2198330D01*
X17267110Y2156000D01*
X17259240Y2113670D01*
X17239550Y2081910D01*
X17204120Y2066030D01*
X17109630D01*
G01X17424590Y2251250D02*
Y1933750D01*
X17582070D01*
G01X17719860D02*
X17818290Y2251250D01*
X17916720Y1933750D01*
G01X17881280Y2044870D02*
X17755290D01*
G01X18133250Y2251250D02*
Y1933750D01*
G01X18042700Y2251250D02*
X18223800D01*
G01X18526950Y1933750D02*
X18369470D01*
Y2251250D01*
X18526950D01*
G01X18463960Y2097800D02*
X18369470D01*
G01X18676560Y1933750D02*
Y2251250D01*
X18755290D01*
X18786790Y2235370D01*
X18810410Y2214210D01*
X18830100Y2182460D01*
X18845850Y2145410D01*
X18849780Y2092500D01*
X18845850Y2039580D01*
X18830100Y2002540D01*
X18810410Y1970780D01*
X18786790Y1949620D01*
X18755290Y1933750D01*
X18676560D01*
G01X17109630Y2568750D02*
Y2886250D01*
X17204120D01*
X17235610Y2870370D01*
X17259240Y2833330D01*
X17267110Y2791000D01*
X17259240Y2748670D01*
X17239550Y2716910D01*
X17204120Y2701030D01*
X17109630D01*
G01X17424590Y2886250D02*
Y2568750D01*
X17582070D01*
G01X17719860D02*
X17818290Y2886250D01*
X17916720Y2568750D01*
G01X17881280Y2679870D02*
X17755290D01*
G01X18133250Y2886250D02*
Y2568750D01*
G01X18042700Y2886250D02*
X18223800D01*
G01X18526950Y2568750D02*
X18369470D01*
Y2886250D01*
X18526950D01*
G01X18463960Y2732800D02*
X18369470D01*
G01X18676560Y2568750D02*
Y2886250D01*
X18755290D01*
X18786790Y2870370D01*
X18810410Y2849210D01*
X18830100Y2817460D01*
X18845850Y2780410D01*
X18849780Y2727500D01*
X18845850Y2674580D01*
X18830100Y2637540D01*
X18810410Y2605780D01*
X18786790Y2584620D01*
X18755290Y2568750D01*
X18676560D01*
G01X17109630Y3203750D02*
Y3521250D01*
X17204120D01*
X17235610Y3505370D01*
X17259240Y3468330D01*
X17267110Y3426000D01*
X17259240Y3383670D01*
X17239550Y3351910D01*
X17204120Y3336030D01*
X17109630D01*
G01X17424590Y3521250D02*
Y3203750D01*
X17582070D01*
G01X17719860D02*
X17818290Y3521250D01*
X17916720Y3203750D01*
G01X17881280Y3314870D02*
X17755290D01*
G01X18133250Y3521250D02*
Y3203750D01*
G01X18042700Y3521250D02*
X18223800D01*
G01X18526950Y3203750D02*
X18369470D01*
Y3521250D01*
X18526950D01*
G01X18463960Y3367800D02*
X18369470D01*
G01X18676560Y3203750D02*
Y3521250D01*
X18755290D01*
X18786790Y3505370D01*
X18810410Y3484210D01*
X18830100Y3452460D01*
X18845850Y3415410D01*
X18849780Y3362500D01*
X18845850Y3309580D01*
X18830100Y3272540D01*
X18810410Y3240780D01*
X18786790Y3219620D01*
X18755290Y3203750D01*
X18676560D01*
G01X17109630Y3838750D02*
Y4156250D01*
X17204120D01*
X17235610Y4140370D01*
X17259240Y4103330D01*
X17267110Y4061000D01*
X17259240Y4018670D01*
X17239550Y3986910D01*
X17204120Y3971030D01*
X17109630D01*
G01X17424590Y4156250D02*
Y3838750D01*
X17582070D01*
G01X17719860D02*
X17818290Y4156250D01*
X17916720Y3838750D01*
G01X17881280Y3949870D02*
X17755290D01*
G01X18133250Y4156250D02*
Y3838750D01*
G01X18042700Y4156250D02*
X18223800D01*
G01X18526950Y3838750D02*
X18369470D01*
Y4156250D01*
X18526950D01*
G01X18463960Y4002800D02*
X18369470D01*
G01X18676560Y3838750D02*
Y4156250D01*
X18755290D01*
X18786790Y4140370D01*
X18810410Y4119210D01*
X18830100Y4087460D01*
X18845850Y4050410D01*
X18849780Y3997500D01*
X18845850Y3944580D01*
X18830100Y3907540D01*
X18810410Y3875780D01*
X18786790Y3854620D01*
X18755290Y3838750D01*
X18676560D01*
G01X19589940Y4315000D02*
Y505000D01*
G01X20341900Y1563330D02*
X20365530Y1595080D01*
X20393090Y1610960D01*
X20424590Y1616250D01*
X20463950Y1605670D01*
X20491520Y1579210D01*
X20499390Y1547460D01*
X20495450Y1515700D01*
X20479700Y1489250D01*
X20400960Y1436330D01*
X20365530Y1399290D01*
X20341900Y1346360D01*
X20334030Y1298750D01*
X20499390D01*
G01X20645060Y1346360D02*
X20668670Y1319910D01*
X20696230Y1304040D01*
X20731670Y1298750D01*
X20767110Y1309330D01*
X20794660Y1330490D01*
X20814350Y1367540D01*
X20818280Y1409870D01*
X20810410Y1452200D01*
X20790720Y1478670D01*
X20763160Y1499830D01*
X20735610Y1505120D01*
X20708050Y1499830D01*
X20672620Y1478670D01*
X20684430Y1616250D01*
X20790720D01*
G01X20621430Y663750D02*
Y981250D01*
X20475760Y753710D01*
X20672620D01*
G01X20330100Y1997250D02*
X20353710Y1960200D01*
X20385210Y1939040D01*
X20420650Y1933750D01*
X20452150Y1939040D01*
X20483640Y1965490D01*
X20503320Y1997250D01*
X20507260Y2029000D01*
X20499390Y2066030D01*
X20471830Y2092500D01*
X20444270Y2103090D01*
X20408830D01*
G01X20444270D02*
X20467890Y2118960D01*
X20487580Y2145410D01*
X20495450Y2177160D01*
X20487580Y2208920D01*
X20467890Y2235370D01*
X20432460Y2251250D01*
X20397030Y2245960D01*
X20361590Y2224790D01*
G01X20645060Y1981360D02*
X20668670Y1954910D01*
X20696230Y1939040D01*
X20731670Y1933750D01*
X20767110Y1944330D01*
X20794660Y1965490D01*
X20814350Y2002540D01*
X20818280Y2044870D01*
X20810410Y2087200D01*
X20790720Y2113670D01*
X20763160Y2134830D01*
X20735610Y2140120D01*
X20708050Y2134830D01*
X20672620Y2113670D01*
X20684430Y2251250D01*
X20790720D01*
G01X20499380Y2701030D02*
X20526950Y2738090D01*
X20550570Y2759250D01*
X20582070Y2769830D01*
X20609630Y2759250D01*
X20629310Y2738090D01*
X20645060Y2706330D01*
X20649000Y2669290D01*
X20645060Y2637540D01*
X20629310Y2605780D01*
X20605680Y2579330D01*
X20578130Y2568750D01*
X20546630Y2579330D01*
X20519070Y2611070D01*
X20503320Y2658710D01*
X20499380Y2711620D01*
X20507260Y2780410D01*
X20519070Y2817460D01*
X20538750Y2854500D01*
X20566310Y2880960D01*
X20593870Y2886250D01*
X20621430Y2875670D01*
X20641120Y2849210D01*
G01X20341900Y3468330D02*
X20365530Y3500080D01*
X20393090Y3515960D01*
X20424590Y3521250D01*
X20463950Y3510670D01*
X20491520Y3484210D01*
X20499390Y3452460D01*
X20495450Y3420700D01*
X20479700Y3394250D01*
X20400960Y3341330D01*
X20365530Y3304290D01*
X20341900Y3251360D01*
X20334030Y3203750D01*
X20499390D01*
G01X20645060Y3267250D02*
X20668670Y3230200D01*
X20700170Y3209040D01*
X20735610Y3203750D01*
X20767110Y3209040D01*
X20798600Y3235490D01*
X20818280Y3267250D01*
X20822220Y3299000D01*
X20814350Y3336030D01*
X20786790Y3362500D01*
X20759230Y3373090D01*
X20723790D01*
G01X20759230D02*
X20782850Y3388960D01*
X20802540Y3415410D01*
X20810410Y3447160D01*
X20802540Y3478920D01*
X20782850Y3505370D01*
X20747420Y3521250D01*
X20711990Y3515960D01*
X20676550Y3494790D01*
G01X20259230Y3838750D02*
X20227730Y3844040D01*
X20200180Y3865200D01*
X20176550Y3896960D01*
X20160800Y3934000D01*
X20152930Y3976330D01*
Y4018670D01*
X20160800Y4061000D01*
X20176550Y4098040D01*
X20200180Y4129790D01*
X20227730Y4150960D01*
X20259230Y4156250D01*
X20290720Y4150960D01*
X20318280Y4129790D01*
X20341910Y4098040D01*
X20357660Y4061000D01*
X20365530Y4018670D01*
Y3976330D01*
X20357660Y3934000D01*
X20341910Y3896960D01*
X20318280Y3865200D01*
X20290720Y3844040D01*
X20259230Y3838750D01*
G01X20290720Y3923420D02*
X20337970Y3838750D01*
G01X20574190Y4156250D02*
Y3838750D01*
G01X20483640Y4156250D02*
X20664740D01*
G01X20889150Y3838750D02*
Y3981620D01*
X20810410Y4156250D01*
G01X20967890D02*
X20889150Y3981620D01*
G01X22750000Y1126580D02*
Y5028020D01*
X24274000D01*
Y1126580D01*
X22750000D01*
G54D11*
X639000Y604000D03*
Y5486000D03*
X6991000Y604000D03*
Y5486000D03*
X10416730Y822500D03*
G54D12*
X735000Y1645000D03*
D03*
Y2661000D03*
D03*
X1540000Y1644000D03*
D03*
Y2660000D03*
D03*
X3745000Y3578000D03*
D03*
Y3832000D03*
D03*
Y4086000D03*
D03*
Y4340000D03*
D03*
X3535000Y5075000D03*
D03*
Y5600000D03*
D03*
X4655000Y533000D03*
D03*
Y787000D03*
D03*
Y1041000D03*
D03*
Y1295000D03*
D03*
X4507000Y3578000D03*
D03*
Y3832000D03*
D03*
Y4086000D03*
D03*
Y4340000D03*
D03*
X4551000Y5075000D03*
D03*
Y5600000D03*
D03*
X5417000Y533000D03*
D03*
Y787000D03*
D03*
Y1041000D03*
D03*
Y1295000D03*
D03*
X5066000Y2091000D03*
D03*
X4812000Y2345000D03*
D03*
X5320000D03*
D03*
X6090000Y4059000D03*
D03*
Y5075000D03*
D03*
X6440000Y490000D03*
D03*
Y1506000D03*
D03*
X7070000Y2818000D03*
D03*
Y2564000D03*
D03*
Y2310000D03*
D03*
Y3578000D03*
D03*
Y3832000D03*
D03*
Y4086000D03*
D03*
Y4340000D03*
D03*
G54D13*
X735000Y1645000D03*
Y2661000D03*
X1540000Y1644000D03*
Y2660000D03*
X3745000Y3578000D03*
Y3832000D03*
Y4086000D03*
Y4340000D03*
X3535000Y5075000D03*
Y5600000D03*
X4655000Y533000D03*
Y787000D03*
Y1041000D03*
Y1295000D03*
X4507000Y3578000D03*
Y3832000D03*
Y4086000D03*
Y4340000D03*
X4551000Y5075000D03*
Y5600000D03*
X5417000Y533000D03*
Y787000D03*
Y1041000D03*
Y1295000D03*
X6090000Y4059000D03*
Y5075000D03*
X6440000Y490000D03*
Y1506000D03*
X7070000Y2818000D03*
Y2564000D03*
Y2310000D03*
Y3578000D03*
Y3832000D03*
Y4086000D03*
Y4340000D03*
X10416730Y2092500D03*
G54D14*
X735000Y3780000D03*
D03*
Y4796000D03*
D03*
X1224000Y700000D03*
D03*
X2240000D03*
D03*
X2310000Y1644000D03*
D03*
Y2660000D03*
D03*
X1820000Y5075000D03*
D03*
Y5600000D03*
D03*
X2904000Y700000D03*
D03*
X2905000Y1644000D03*
D03*
Y2660000D03*
D03*
X2836000Y5075000D03*
D03*
Y5600000D03*
D03*
X3920000Y700000D03*
D03*
Y1644000D03*
D03*
Y2660000D03*
D03*
X4619000Y2975000D03*
D03*
X5320000Y4059000D03*
D03*
Y5075000D03*
D03*
X6055000Y489000D03*
D03*
Y1505000D03*
D03*
X5635000Y2975000D03*
D03*
G54D15*
X735000Y3780000D03*
Y4796000D03*
X1224000Y700000D03*
X2240000D03*
X2310000Y1644000D03*
Y2660000D03*
X1820000Y5075000D03*
Y5600000D03*
X2904000Y700000D03*
X2905000Y1644000D03*
Y2660000D03*
X2836000Y5075000D03*
Y5600000D03*
X3920000Y700000D03*
Y1644000D03*
Y2660000D03*
X4619000Y2975000D03*
X5066000Y2091000D03*
X4812000Y2345000D03*
X5320000D03*
Y4059000D03*
Y5075000D03*
X6055000Y489000D03*
Y1505000D03*
X5635000Y2975000D03*
X10416730Y1457500D03*
G54D16*
X1540000Y1644000D03*
D03*
Y1610000D03*
D03*
X1483000Y3780000D03*
D03*
X1820000Y5075000D03*
D03*
Y5600000D03*
D03*
X2905000Y1644000D03*
D03*
X3605000Y1855000D03*
D03*
Y2450000D03*
D03*
X3745000Y3832000D03*
D03*
X4690000Y1041000D03*
D03*
X4507000Y4340000D03*
D03*
X4551000Y5600000D03*
D03*
X5417000Y1041000D03*
D03*
X5390000Y1015000D03*
D03*
X5425000Y3578000D03*
D03*
X5215000D03*
D03*
X6055000Y1960000D03*
D03*
X5880000Y2905000D03*
D03*
X6440000Y1506000D03*
D03*
Y2170000D03*
D03*
Y3010000D03*
D03*
X7070000Y2818000D03*
D03*
Y3832000D03*
D03*
G54D17*
X1540000Y1644000D03*
Y1610000D03*
X1483000Y3780000D03*
X1820000Y5075000D03*
Y5600000D03*
X2905000Y1644000D03*
X3605000Y1855000D03*
Y2450000D03*
X3745000Y3832000D03*
X4690000Y1041000D03*
X4507000Y4340000D03*
X4551000Y5600000D03*
X5417000Y1041000D03*
X5390000Y1015000D03*
X5425000Y3578000D03*
X5215000D03*
X6055000Y1960000D03*
X5880000Y2905000D03*
X6440000Y1506000D03*
Y2170000D03*
Y3010000D03*
X7070000Y2818000D03*
Y3832000D03*
X10416730Y3362500D03*
G54D18*
X1356000Y3780000D03*
D03*
X1610000D03*
D03*
X1483000D03*
D03*
X2424000D03*
D03*
X2170000D03*
D03*
X2297000D03*
D03*
G54D19*
X1356000D03*
X1610000D03*
X1483000D03*
X2424000D03*
X2170000D03*
X2297000D03*
X10416730Y2727500D03*
M02*
