G04 ================== begin FILE IDENTIFICATION RECORD ==================*
G04 Layout Name:  D:/ORCAD - PROIECTE/PROIECT TIE/allegro/PROIECTTIE.brd*
G04 Film Name:    TOP*
G04 File Format:  Gerber RS274X*
G04 File Origin:  Cadence Allegro 16.6-2015-S059*
G04 Origin Date:  Sat May 30 20:55:02 2020*
G04 *
G04 Layer:  ETCH/TOP*
G04 Layer:  PIN/TOP*
G04 Layer:  VIA CLASS/TOP*
G04 *
G04 Offset:    (0.0000 0.0000)*
G04 Mirror:    No*
G04 Mode:      Positive*
G04 Rotation:  0*
G04 FullContactRelief:  No*
G04 UndefLineWidth:     0.2000*
G04 ================== end FILE IDENTIFICATION RECORD ====================*
%FSLAX25Y25*MOIN*%
%IR0*IPPOS*OFA0.00000B0.00000*MIA0B0*SFA1.00000B1.00000*%
%ADD10C,.025*%
%ADD14C,.024*%
%ADD15C,.035*%
%ADD12C,.06*%
%ADD13C,.065*%
%ADD11R,.06X.06*%
%ADD16C,.009843*%
%ADD17C,.005*%
%ADD18C,.047244*%
G75*
%LPD*%
G75*
G54D10*
X25157Y23780D03*
Y215984D03*
X275236Y23780D03*
Y215984D03*
G54D11*
X28937Y64764D03*
X60630Y104724D03*
X147441Y170866D03*
X183268Y50984D03*
X239764Y199803D03*
X253543Y19291D03*
G54D12*
X28937Y104764D03*
X60630Y64724D03*
X147441Y140866D03*
Y150866D03*
Y160866D03*
X139173Y199803D03*
Y220472D03*
X183268Y20984D03*
Y30984D03*
Y40984D03*
X177441Y140866D03*
Y150866D03*
Y160866D03*
Y170866D03*
X179173Y199803D03*
Y220472D03*
X213268Y20984D03*
Y30984D03*
Y40984D03*
Y50984D03*
X199449Y82323D03*
X189449Y92323D03*
X209449D03*
X239764Y159803D03*
X253543Y59291D03*
X278346Y110945D03*
Y100945D03*
Y90945D03*
Y140866D03*
Y150866D03*
Y160866D03*
Y170866D03*
G54D13*
X28937Y148819D03*
Y188819D03*
X48189Y27559D03*
X88189D03*
X90945Y64724D03*
Y104724D03*
X71654Y199803D03*
Y220472D03*
X114331Y27559D03*
X114370Y64724D03*
Y104724D03*
X111654Y199803D03*
Y220472D03*
X154331Y27559D03*
Y64724D03*
Y104724D03*
X181850Y117126D03*
X209449Y159803D03*
Y199803D03*
X238386Y19252D03*
Y59252D03*
X221850Y117126D03*
G54D14*
X60630Y64724D03*
Y63386D03*
X58386Y148819D03*
X71654Y199803D03*
Y220472D03*
X114370Y64724D03*
X141929Y73031D03*
Y96457D03*
X147441Y150866D03*
X184646Y40984D03*
X177441Y170866D03*
X179173Y220472D03*
X213268Y40984D03*
X212205Y39961D03*
X213583Y140866D03*
X205315D03*
X238386Y77165D03*
X231496Y114370D03*
X253543Y59291D03*
Y85433D03*
Y118504D03*
X278346Y110945D03*
Y150866D03*
G54D15*
X53386Y148819D03*
X63386D03*
X58386D03*
X95433D03*
X85433D03*
X90433D03*
G54D16*
G01X28937Y64764D02*
X56880D01*
Y64724D01*
X60630D01*
G01X28937Y188819D02*
X39921Y199803D01*
X58386D01*
G01X60630Y64724D02*
Y63386D01*
G01X58386Y148819D02*
Y199803D01*
G01D02*
X71654D01*
G01D02*
X99213Y227362D01*
X221850D01*
X278346Y170866D01*
G01X179173Y220472D02*
X219094D01*
X239764Y199803D01*
G01X213268Y40984D02*
X212205D01*
Y39961D01*
G01X238386Y19252D02*
X235000D01*
X213268Y40984D01*
G01X239764Y199803D02*
X275694Y163872D01*
Y163518D01*
X278346Y160866D01*
G54D17*
G01X28937Y148819D02*
Y104764D01*
G01Y148819D02*
X53386D01*
G01X183268Y30984D02*
X170157D01*
X155709Y16535D01*
X59213D01*
X48189Y27559D01*
G01X60630Y104724D02*
X90945D01*
G01X90433Y148819D02*
Y146319D01*
X90945D01*
Y104724D01*
G01X63386Y148819D02*
X85433D01*
G01X121929Y150866D02*
X114370Y143307D01*
Y104724D01*
G01X147441Y150866D02*
X121929D01*
G01X111654Y199803D02*
X121929Y189528D01*
Y150866D01*
G01X111654Y220472D02*
X139173D01*
G01X147441Y160866D02*
X139173Y169134D01*
Y199803D01*
G01X147441Y170866D02*
Y175000D01*
X172244Y199803D01*
X179173D01*
G01X139173Y220472D02*
Y199803D01*
G01X154331Y27559D02*
Y40984D01*
G01D02*
Y64724D01*
G01X183268Y40984D02*
X154331D01*
G01X177441Y140866D02*
X205315D01*
G01X177441D02*
X170866Y147441D01*
Y164291D01*
X177441Y170866D01*
G01X209449Y199803D02*
X179173D01*
G01X183268Y40984D02*
X184646D01*
G01X197735Y79921D02*
Y80609D01*
G01X213583Y140866D02*
X215533D01*
X221850Y134549D01*
Y117126D01*
G01X253543Y118504D02*
Y146024D01*
X239764Y159803D01*
G01X253543Y59291D02*
Y85433D01*
G54D18*
G01X88189Y27559D02*
X114331D01*
G01X90945Y64724D02*
X103346D01*
G01D02*
Y140906D01*
X95433Y148819D01*
G01X114331Y27559D02*
Y31559D01*
X114370D01*
Y64724D01*
G01X209449Y107480D02*
X192913D01*
X172243Y86809D01*
X136455D01*
X114370Y64724D01*
G01D02*
X103346D01*
G01X141929Y73031D02*
X190157D01*
G01X141929Y96457D02*
Y135354D01*
X147441Y140866D01*
G01X190157Y50984D02*
Y27874D01*
X183268Y20984D01*
G01Y50984D02*
X190157D01*
G01X177441Y160866D02*
X183307Y166732D01*
X212205D01*
X231496Y147441D01*
Y114370D01*
G01X238386Y59252D02*
X230118Y50984D01*
X213268D01*
G01X190157D02*
Y73031D01*
G01X278346Y100945D02*
X246971D01*
X228349Y82323D01*
X199449D01*
G01X197735Y80609D02*
X199449Y82323D01*
G01X190157Y73031D02*
X197735Y80609D01*
G01X278346Y110945D02*
X247362D01*
X228740Y92323D01*
X209449D01*
G01Y159803D02*
Y107480D01*
G01D02*
Y92323D01*
G01X278346Y90945D02*
X246653D01*
X238386Y82678D01*
Y77165D01*
G01D02*
Y59252D01*
G01X278346Y110945D02*
Y140866D01*
M02*
